<?xml version="1.0" standalone="no"?>
<!DOCTYPE svg PUBLIC "-//W3C//DTD SVG 20010904//EN"
 "http://www.w3.org/TR/2001/REC-SVG-20010904/DTD/svg10.dtd">
<svg version="1.0" xmlns="http://www.w3.org/2000/svg"
 width="1280.000000pt" height="1117.000000pt" viewBox="0 0 1280.000000 1117.000000"
 preserveAspectRatio="xMidYMid meet">
<g transform="translate(0.000000,1117.000000) scale(0.100000,-0.100000)"
fill="#000000" stroke="none">
<path d="M9949 11043 l-237 -105 -203 97 c-112 53 -210 99 -217 102 -10 4 -12
-12 -10 -72 l3 -78 144 -58 c80 -33 147 -62 150 -64 11 -12 -25 -31 -156 -84
l-138 -57 -3 -82 c-2 -45 0 -82 3 -82 3 0 105 46 225 101 l219 102 227 -104
c125 -57 231 -106 236 -107 5 -2 8 31 6 73 l-3 77 -162 65 c-95 38 -163 71
-163 78 0 8 67 40 163 77 l162 64 3 82 c2 45 -1 82 -5 82 -4 0 -114 -48 -244
-107z"/>
<path d="M10080 10311 c0 -123 -3 -152 -16 -165 -12 -13 -39 -16 -130 -16 -64
0 -124 5 -135 10 -17 10 -19 23 -19 150 l0 140 -60 0 -60 0 0 -134 c0 -169 2
-166 -125 -166 -51 0 -100 3 -109 6 -14 5 -16 28 -16 155 l0 149 -65 0 -65 0
0 -225 0 -225 460 0 460 0 0 229 0 228 -37 7 c-89 14 -83 25 -83 -143z"/>
<path d="M8724 10381 c-48 -22 -76 -57 -130 -160 -53 -103 -111 -134 -183 -96
-32 16 -41 33 -41 79 0 42 24 74 63 84 30 8 32 12 35 56 l3 48 -33 -7 c-77
-16 -127 -66 -137 -137 -19 -128 41 -217 152 -226 105 -8 161 32 232 167 42
79 71 107 119 117 76 14 138 -31 138 -100 0 -49 -26 -85 -73 -104 -37 -14 -39
-17 -39 -60 l0 -44 38 7 c94 17 145 86 146 195 0 83 -31 144 -89 177 -51 29
-142 31 -201 4z"/>
<path d="M5736 10121 c-4 -5 -3 -16 0 -25 5 -13 25 -16 124 -16 98 0 119 -3
124 -16 10 -25 7 -157 -4 -174 -7 -11 -37 -16 -127 -20 -96 -4 -118 -8 -118
-20 0 -13 40 -15 288 -18 282 -2 287 -2 287 18 0 19 -6 20 -124 20 -68 0 -131
3 -140 6 -13 5 -16 24 -16 105 l0 98 138 3 c134 3 137 4 140 26 l3 22 -285 0
c-160 0 -287 -4 -290 -9z"/>
<path d="M8078 9818 l-3 -103 -115 0 -115 0 -3 93 c-2 83 -5 92 -22 92 -17 0
-20 -9 -22 -92 l-3 -93 -100 0 -100 0 -3 98 c-2 87 -5 98 -20 95 -15 -3 -17
-18 -17 -123 l0 -120 280 0 280 0 0 125 c0 110 -2 125 -17 128 -15 3 -18 -9
-20 -100z"/>
<path d="M8427 9906 c-86 -23 -127 -80 -127 -177 0 -101 47 -160 157 -196 35
-12 90 -17 203 -17 183 -1 249 14 304 68 63 63 70 181 15 257 -19 28 -81 62
-132 73 -28 7 -28 7 -25 -41 3 -43 6 -47 33 -55 61 -15 97 -73 79 -127 -6 -17
-26 -35 -59 -51 -45 -23 -64 -25 -197 -28 -174 -4 -241 9 -282 59 -30 35 -32
58 -11 98 13 25 31 36 88 55 13 4 17 16 17 51 0 25 -3 45 -7 44 -5 0 -30 -6
-56 -13z"/>
<path d="M10080 9741 c0 -101 -4 -151 -12 -159 -9 -9 -112 -12 -400 -12 l-388
0 0 -70 0 -70 460 0 460 0 0 220 0 220 -22 4 c-13 3 -40 7 -60 10 l-38 5 0
-148z"/>
<path d="M5804 9706 c-50 -22 -74 -61 -74 -120 0 -99 58 -146 205 -167 144
-20 298 7 350 61 27 28 30 38 30 95 0 54 -4 68 -25 90 -26 28 -77 55 -105 55
-31 0 -13 -43 22 -52 39 -10 73 -51 73 -89 0 -41 -42 -84 -97 -100 -62 -17
-254 -17 -315 0 -63 18 -98 53 -98 98 0 50 14 69 65 88 31 12 45 23 45 36 0
23 -30 25 -76 5z"/>
<path d="M7624 9546 c-73 -32 -99 -131 -54 -204 40 -66 184 -100 352 -82 147
15 203 58 202 154 0 66 -22 101 -77 127 -56 25 -67 24 -67 -6 0 -15 6 -25 15
-25 46 0 95 -51 95 -99 0 -31 -45 -76 -87 -88 -103 -30 -295 -23 -364 13 -41
21 -62 72 -48 113 11 31 52 61 84 61 9 0 15 9 15 25 0 29 -18 32 -66 11z"/>
<path d="M8307 9373 c-9 -8 -9 -46 -1 -67 5 -14 46 -16 350 -16 l344 0 0 45 0
45 -343 0 c-189 0 -347 -3 -350 -7z"/>
<path d="M5823 9313 c-62 -12 -96 -87 -91 -206 l3 -72 288 -3 287 -2 0 25 0
24 -132 3 -133 3 -3 61 c-5 100 30 122 201 123 63 1 67 2 67 24 0 23 -2 23
-87 20 -126 -5 -152 -11 -179 -40 l-24 -26 -28 26 c-44 42 -95 54 -169 40z
m126 -58 c36 -18 53 -60 49 -121 l-3 -49 -110 0 -110 0 -3 55 c-3 63 12 99 48
117 34 17 95 16 129 -2z"/>
<path d="M9437 9284 c-61 -19 -119 -76 -141 -139 -12 -37 -16 -86 -16 -207 l0
-158 460 0 460 0 0 70 0 70 -177 0 c-98 0 -183 4 -189 8 -7 4 -13 46 -16 97
-7 147 -59 229 -162 260 -62 19 -156 18 -219 -1z m203 -149 c42 -22 60 -63 60
-138 0 -50 -4 -66 -16 -71 -9 -3 -69 -6 -134 -6 -65 0 -125 3 -134 6 -12 5
-16 21 -16 71 0 77 19 119 63 138 43 19 141 19 177 0z"/>
<path d="M8415 9158 c-41 -14 -75 -46 -92 -88 -17 -38 -30 -222 -19 -264 l6
-26 345 0 345 0 0 45 0 45 -143 0 c-98 0 -147 4 -155 12 -14 14 -16 87 -2 122
17 46 52 59 178 65 l117 6 3 44 3 43 -129 -4 c-131 -4 -172 -15 -195 -55 -12
-21 -31 -16 -62 17 -44 46 -130 63 -200 38z m155 -103 c48 -25 71 -153 31
-175 -21 -11 -179 -14 -205 -4 -12 5 -16 21 -16 71 0 58 3 67 29 94 25 24 37
29 81 29 28 0 64 -7 80 -15z"/>
<path d="M7555 9130 c-16 -27 16 -30 286 -30 272 0 279 0 279 20 0 20 -7 20
-279 20 -176 0 -282 -4 -286 -10z"/>
<path d="M1665 9009 c-3 -8 -6 -70 -7 -139 l-3 -125 -139 -3 c-93 -2 -143 1
-152 9 -10 9 -14 40 -14 125 l0 114 -25 0 -24 0 -3 -122 -3 -123 -121 -3 c-92
-2 -124 1 -132 11 -7 8 -13 64 -14 133 -3 111 -4 119 -23 119 -19 0 -20 -8
-23 -162 l-2 -163 370 0 370 0 0 165 c0 94 -4 165 -9 165 -5 0 -16 3 -25 6 -9
3 -18 0 -21 -7z"/>
<path d="M7552 8863 c3 -131 5 -148 21 -151 14 -3 17 4 17 46 0 88 -21 82 272
82 l259 0 -3 23 -3 22 -260 5 -260 5 -3 58 c-3 49 -6 57 -23 57 -19 0 -19 -6
-17 -147z"/>
<path d="M6000 8871 c-255 -63 -265 -67 -268 -91 -1 -14 1 -30 5 -36 6 -9 541
-144 569 -144 3 0 4 10 2 22 -3 19 -15 25 -83 41 -44 10 -85 23 -92 29 -8 7
-13 36 -13 78 0 42 5 71 13 78 7 6 48 19 92 29 68 16 80 22 83 41 3 17 -1 22
-20 21 -13 -1 -142 -31 -288 -68z m78 -95 c2 -32 -1 -63 -6 -68 -8 -8 -96 9
-261 47 -16 4 -21 9 -14 16 12 12 239 68 263 65 11 -1 16 -17 18 -60z"/>
<path d="M2275 8850 c-48 -11 -68 -26 -95 -70 -68 -113 -75 -119 -126 -106
-19 5 -24 13 -24 36 0 23 7 33 31 45 26 14 30 21 27 53 -3 33 -6 37 -28 34
-80 -11 -123 -108 -86 -197 18 -42 61 -65 122 -65 41 0 51 5 83 38 20 20 48
58 63 84 18 31 36 50 53 54 80 20 116 -54 44 -92 -25 -12 -29 -21 -29 -54 0
-34 3 -40 20 -40 63 0 110 60 110 140 0 103 -69 162 -165 140z"/>
<path d="M10437 8704 c-20 -20 7 -24 164 -24 132 0 170 -3 167 -12 -3 -7 -78
-42 -169 -78 -137 -55 -165 -69 -167 -88 l-3 -22 210 0 c131 0 211 4 211 10 0
6 -69 11 -172 12 -176 3 -215 13 -146 37 18 6 97 37 176 67 127 50 143 59 140
78 -3 21 -7 21 -204 24 -110 1 -203 -1 -207 -4z"/>
<path d="M8305 8668 c-3 -13 -4 -102 -3 -198 l3 -175 38 -3 37 -3 0 53 c0 29
3 63 6 76 l6 22 304 0 304 0 0 45 0 45 -292 0 c-162 0 -300 4 -308 10 -10 6
-16 32 -18 79 l-4 71 -34 0 c-27 0 -35 -5 -39 -22z"/>
<path d="M7612 8633 c-42 -20 -62 -59 -62 -118 0 -65 24 -101 90 -133 52 -26
62 -27 205 -27 136 0 154 2 197 23 25 13 54 35 64 50 24 36 24 120 1 156 -36
55 -127 88 -127 47 0 -13 11 -23 34 -31 48 -16 71 -44 71 -92 0 -81 -86 -113
-285 -106 -120 5 -156 15 -194 57 -25 27 -25 85 -1 111 10 11 33 24 51 30 23
8 34 18 34 31 0 24 -32 25 -78 2z"/>
<path d="M9280 8491 c0 -61 4 -112 8 -115 5 -3 132 -28 283 -57 322 -60 354
-68 343 -79 -5 -5 -146 -31 -312 -59 -167 -28 -308 -53 -313 -57 -5 -3 -9 -54
-9 -115 l0 -109 460 0 461 0 -3 63 -3 62 -392 -2 c-236 -2 -393 1 -393 6 0 13
48 22 425 81 176 27 330 52 343 55 20 5 22 11 22 70 0 52 -3 65 -17 69 -17 5
-366 69 -632 115 -202 35 -167 41 257 41 l392 0 0 70 0 70 -460 0 -460 0 0
-109z"/>
<path d="M2358 8448 l-3 -73 -192 -3 -193 -2 0 -45 0 -45 230 0 230 0 0 114
c0 120 -2 126 -50 126 -17 0 -20 -9 -22 -72z"/>
<path d="M5741 8506 c-8 -9 -11 -53 -9 -127 l3 -114 285 0 285 0 3 128 c2 121
2 127 -17 127 -19 0 -21 -8 -23 -102 l-3 -103 -115 0 -115 0 -3 75 c-3 95 -9
120 -27 120 -12 0 -15 -17 -15 -84 0 -46 -3 -91 -6 -100 -5 -13 -24 -16 -104
-16 -80 0 -99 3 -104 16 -3 9 -6 53 -6 99 0 84 -8 106 -29 81z"/>
<path d="M980 8456 l0 -55 38 -10 c57 -16 397 -97 485 -116 46 -10 77 -22 77
-30 0 -8 -33 -19 -87 -29 -103 -21 -414 -90 -472 -106 l-41 -11 0 -55 0 -54
368 2 367 3 3 28 3 27 -336 0 c-206 0 -334 4 -330 9 6 10 18 13 390 91 132 28
248 53 258 56 18 6 25 58 8 68 -4 3 -146 37 -314 76 -169 39 -314 73 -323 77
-45 17 37 23 329 23 l318 0 -3 28 -3 27 -367 3 -368 2 0 -54z"/>
<path d="M10533 8380 c-96 -20 -136 -86 -98 -159 22 -44 76 -64 185 -69 113
-5 172 9 212 48 49 50 33 127 -35 162 -45 23 -194 33 -264 18z m253 -45 c64
-27 65 -98 2 -132 -47 -26 -248 -26 -295 0 -51 27 -58 97 -12 126 53 32 234
36 305 6z"/>
<path d="M2644 8267 c-2 -7 -3 -91 -2 -187 3 -156 5 -175 20 -178 15 -3 18 8
20 85 l3 88 39 3 c22 2 50 1 63 -3 31 -7 53 -59 53 -125 0 -38 4 -50 15 -50
12 0 15 14 15 70 0 57 -4 74 -20 90 -25 25 -25 42 -1 57 27 17 35 64 17 106
-11 28 -23 38 -53 46 -55 16 -162 14 -169 -2z m171 -32 c33 -32 33 -78 0 -111
-22 -21 -33 -25 -78 -22 l-52 3 -3 64 c-4 87 -2 91 58 91 41 0 56 -5 75 -25z"/>
<path d="M2974 8267 c-2 -7 -3 -91 -2 -187 l3 -175 103 -3 c70 -2 102 1 97 8
-3 5 -42 10 -86 10 l-80 0 3 83 3 82 78 3 c42 2 77 7 77 12 0 5 -35 10 -77 12
l-78 3 0 70 0 70 83 3 c114 4 95 22 -24 22 -68 0 -96 -4 -100 -13z"/>
<path d="M3297 8260 c-33 -26 -43 -70 -23 -108 11 -21 36 -39 86 -63 99 -46
127 -103 75 -154 -37 -38 -89 -34 -131 10 -18 19 -37 35 -43 35 -14 0 -14 -6
4 -39 33 -64 164 -68 215 -6 7 8 13 33 13 56 0 51 -28 82 -110 119 -63 29 -83
51 -83 93 0 34 30 57 73 57 36 0 77 -27 77 -50 0 -5 7 -10 15 -10 24 0 17 37
-11 59 -37 29 -121 29 -157 1z"/>
<path d="M3587 8273 c-4 -3 -7 -89 -7 -190 l0 -183 106 0 c67 0 103 4 99 10
-3 6 -42 10 -86 10 l-80 0 3 83 3 82 78 3 c42 2 77 7 77 12 0 5 -35 10 -77 12
l-78 3 0 70 0 70 83 3 c49 2 80 7 77 12 -7 11 -188 14 -198 3z"/>
<path d="M3973 8268 c-5 -7 -24 -65 -42 -128 -19 -63 -41 -143 -51 -177 -17
-58 -17 -63 -2 -63 12 0 22 18 35 60 l17 60 70 0 70 0 17 -60 c13 -46 21 -60
35 -60 14 0 18 5 14 18 -35 121 -100 331 -108 345 -10 20 -41 23 -55 5z m41
-45 c51 -169 49 -183 -14 -183 -62 0 -65 7 -41 96 12 44 24 85 26 92 6 18 23
15 29 -5z"/>
<path d="M4220 8090 c0 -162 2 -190 15 -190 12 0 15 15 15 74 0 102 3 106 60
106 74 0 93 -21 98 -109 4 -62 7 -71 23 -71 18 0 19 5 13 68 -4 42 -13 77 -26
95 l-19 28 25 30 c28 32 34 76 15 111 -16 30 -71 48 -149 48 l-70 0 0 -190z
m164 149 c20 -16 26 -29 26 -59 0 -52 -35 -80 -100 -80 -55 0 -60 7 -60 80 0
73 5 80 60 80 33 0 55 -6 74 -21z"/>
<path d="M4599 8265 c-46 -25 -64 -78 -63 -185 0 -108 15 -150 64 -175 57 -30
141 -12 165 36 8 15 15 33 15 39 0 21 -26 9 -42 -20 -34 -60 -99 -64 -141 -9
-22 31 -33 131 -23 203 9 60 47 106 88 106 39 0 67 -16 78 -46 11 -27 40 -33
40 -8 0 8 -13 29 -29 45 -25 24 -37 29 -78 29 -26 -1 -60 -7 -74 -15z"/>
<path d="M4877 8274 c-4 -4 -7 -90 -7 -191 0 -175 1 -183 20 -183 18 0 20 8
22 93 l3 92 80 0 80 0 3 -92 c3 -85 4 -93 23 -93 19 0 19 6 17 188 -3 158 -5
187 -18 187 -12 0 -16 -18 -20 -80 l-5 -80 -80 0 -80 0 -5 79 c-5 73 -15 98
-33 80z"/>
<path d="M7820 8211 l-265 -67 0 -34 0 -35 275 -67 c151 -37 279 -68 283 -68
5 0 7 10 5 22 -3 19 -15 25 -83 41 -44 10 -86 25 -92 34 -15 20 -17 121 -3
143 5 8 47 24 92 35 71 17 83 23 86 43 3 16 -1 22 -15 21 -10 0 -137 -31 -283
-68z m71 -52 c11 -21 8 -104 -4 -116 -3 -3 -50 4 -104 16 -153 34 -177 41
-166 52 8 8 210 62 255 68 4 1 12 -9 19 -20z"/>
<path d="M2365 8208 c-2 -7 -6 -40 -7 -73 l-3 -60 -192 -3 -193 -2 0 -45 0
-45 230 0 230 0 0 114 c0 109 -1 114 -22 120 -33 8 -38 8 -43 -6z"/>
<path d="M8930 8101 c0 -89 -3 -121 -14 -130 -9 -8 -51 -11 -122 -9 l-109 3
-3 113 -3 112 -39 0 -40 0 0 -103 c0 -67 -4 -107 -12 -115 -8 -8 -45 -12 -100
-12 -108 0 -108 0 -108 144 l0 106 -34 0 c-22 0 -36 -6 -40 -16 -3 -9 -6 -78
-6 -154 0 -76 3 -145 6 -154 5 -14 46 -16 350 -16 l344 0 0 169 c0 166 0 169
-22 175 -48 12 -48 12 -48 -113z"/>
<path d="M6100 8149 c-39 -16 -79 -59 -112 -121 -44 -82 -69 -103 -128 -103
-55 0 -85 21 -95 66 -9 40 14 81 58 102 60 28 46 69 -16 44 -53 -23 -77 -61
-77 -122 0 -96 69 -155 163 -140 51 9 90 44 133 121 48 85 83 114 140 114 77
0 113 -30 114 -95 0 -50 -20 -80 -68 -103 -40 -19 -49 -45 -17 -50 32 -4 87
31 107 69 41 76 12 174 -62 211 -38 20 -101 22 -140 7z"/>
<path d="M10430 8045 c0 -13 30 -15 210 -15 180 0 210 2 210 15 0 13 -30 15
-210 15 -180 0 -210 -2 -210 -15z"/>
<path d="M10430 7850 c0 -67 4 -110 10 -110 6 0 10 15 10 33 0 62 1 62 210 65
142 2 190 6 187 15 -3 9 -58 13 -192 15 -136 2 -191 6 -197 15 -4 6 -8 27 -8
45 0 17 -4 32 -10 32 -6 0 -10 -43 -10 -110z"/>
<path d="M1974 7876 c-3 -8 -4 -29 -2 -48 l3 -33 225 0 225 0 0 45 0 45 -223
3 c-185 2 -223 0 -228 -12z"/>
<path d="M7625 7846 c-52 -23 -68 -58 -73 -168 l-5 -98 287 0 c279 0 286 0
286 20 0 19 -7 20 -119 20 -66 0 -126 3 -135 6 -21 8 -22 94 -1 134 18 36 35
41 154 49 87 5 96 8 96 26 0 18 -6 19 -95 17 -114 -4 -127 -7 -163 -40 l-28
-26 -22 26 c-38 47 -118 62 -182 34z m156 -66 c28 -27 30 -34 27 -92 l-3 -63
-105 0 -105 0 -3 63 c-3 58 -1 65 27 92 25 26 37 30 81 30 44 0 56 -4 81 -30z"/>
<path d="M982 7798 l3 -33 307 -5 c291 -5 308 -6 335 -26 50 -37 64 -126 28
-177 -36 -51 -40 -52 -365 -57 l-305 -5 -3 -32 -3 -33 293 0 c174 0 308 4 331
11 88 24 135 106 124 215 -8 76 -32 114 -92 144 -50 25 -53 25 -353 28 l-303
3 3 -33z"/>
<path d="M2286 7689 c-70 -27 -132 -49 -136 -49 -4 0 -43 20 -86 45 -44 25
-82 45 -86 45 -5 0 -8 -20 -8 -45 l0 -45 90 -45 c50 -25 90 -50 90 -55 0 -6
-32 -10 -74 -10 -98 0 -106 -4 -106 -51 l0 -39 230 0 230 0 0 39 c0 46 -9 51
-86 51 -60 0 -94 13 -94 35 0 12 45 33 143 64 36 12 37 14 37 62 0 27 -3 49
-7 48 -5 0 -66 -23 -137 -50z"/>
<path d="M9514 7726 c-75 -17 -150 -55 -186 -93 -41 -43 -58 -94 -58 -175 0
-179 109 -266 360 -288 115 -10 285 0 362 21 121 32 199 102 218 195 32 154
-36 273 -188 324 -59 20 -91 23 -257 26 -136 3 -207 0 -251 -10z m480 -157
c21 -7 51 -25 67 -40 24 -22 29 -35 29 -72 0 -39 -5 -49 -35 -75 -44 -40 -85
-51 -218 -61 -130 -11 -297 1 -355 24 -141 57 -115 195 45 235 56 14 419 6
467 -11z"/>
<path d="M10625 7690 c-180 -45 -190 -49 -193 -73 -3 -24 0 -25 175 -67 98
-23 193 -45 211 -50 24 -6 32 -5 32 5 0 14 -4 16 -80 35 -54 14 -60 22 -60 77
0 53 14 66 84 82 36 8 56 18 56 27 0 20 -11 18 -225 -36z m63 -66 c5 -62 -8
-66 -116 -41 -51 12 -94 26 -95 31 -2 11 157 55 188 53 16 -2 21 -10 23 -43z"/>
<path d="M8307 7713 c-9 -9 -9 -115 1 -129 4 -7 117 -35 252 -64 233 -49 282
-63 249 -74 -8 -3 -122 -25 -253 -50 -141 -26 -243 -50 -248 -58 -4 -7 -7 -40
-6 -73 l3 -60 348 -3 347 -2 0 40 0 40 -300 0 c-193 0 -300 4 -300 10 0 6 3
10 8 10 4 1 138 24 297 53 l290 52 3 39 c2 21 -1 43 -5 47 -5 5 -135 34 -288
64 -154 30 -286 58 -294 60 -39 15 24 18 294 16 l295 -2 0 45 0 46 -343 0
c-189 0 -347 -3 -350 -7z"/>
<path d="M3713 7679 c-78 -23 -118 -138 -110 -314 6 -133 19 -179 62 -222 30
-30 38 -33 95 -33 57 0 65 3 95 33 52 52 68 122 63 280 -3 115 -6 138 -27 181
-18 37 -34 53 -65 67 -45 20 -65 22 -113 8z m105 -54 c41 -34 56 -98 56 -230
-1 -119 -13 -178 -44 -218 -45 -57 -122 -40 -156 34 -16 37 -19 66 -19 189 0
128 2 150 21 185 35 67 91 83 142 40z"/>
<path d="M5906 7680 c-41 -13 -73 -46 -93 -99 -26 -67 -26 -306 0 -373 27 -69
66 -98 130 -98 69 0 112 27 140 88 19 42 22 64 22 197 0 140 -2 153 -25 199
-14 28 -36 58 -50 67 -31 22 -86 31 -124 19z m104 -58 c39 -40 50 -88 50 -227
-1 -148 -18 -210 -68 -238 -60 -35 -120 3 -141 90 -15 60 -16 249 -1 304 25
92 104 127 160 71z"/>
<path d="M2655 7668 c-3 -7 -4 -135 -3 -283 3 -262 4 -270 23 -270 20 0 20 7
20 280 0 259 -1 280 -18 283 -9 2 -19 -3 -22 -10z"/>
<path d="M2837 7673 c-9 -8 -9 -526 -1 -547 9 -23 32 -20 40 6 4 12 5 117 3
233 -3 134 0 211 6 214 6 2 51 -99 101 -225 50 -125 98 -233 106 -238 9 -5 23
-6 32 -3 14 6 16 36 16 287 0 263 -1 281 -17 278 -16 -3 -18 -23 -21 -231 -1
-125 -6 -227 -11 -227 -10 0 -20 24 -112 255 -39 99 -75 186 -81 193 -11 13
-50 17 -61 5z"/>
<path d="M3282 7398 c3 -244 5 -283 18 -283 12 0 15 22 18 124 1 71 7 130 14
138 7 9 37 13 94 13 77 0 84 2 84 20 0 18 -8 20 -92 22 l-93 3 0 100 0 100
100 5 c80 4 100 8 100 20 0 12 -22 15 -123 18 l-122 3 2 -283z"/>
<path d="M4042 7398 c3 -244 5 -283 18 -283 12 0 16 23 20 130 l5 130 49 3
c108 7 126 -15 135 -161 5 -93 8 -102 26 -102 19 0 20 5 16 100 -4 111 -12
142 -44 167 l-22 17 28 25 c50 46 62 122 29 186 -26 52 -70 70 -175 70 l-87 0
2 -282z m199 213 c25 -25 29 -37 29 -81 0 -44 -4 -56 -30 -81 -27 -28 -34 -30
-92 -27 l-63 3 -3 94 c-1 52 -1 100 2 108 4 9 25 13 66 13 55 0 65 -3 91 -29z"/>
<path d="M4435 7667 c-3 -7 -4 -134 -3 -282 3 -232 5 -270 18 -270 13 0 15 34
18 240 2 242 6 284 21 255 5 -8 30 -118 56 -245 76 -365 81 -361 195 148 12
53 26 97 31 97 5 0 9 -103 9 -244 0 -247 4 -272 35 -246 13 10 15 57 15 274 0
143 -4 267 -9 274 -5 8 -22 12 -41 10 l-34 -3 -37 -150 c-20 -82 -45 -185 -54
-228 -18 -81 -33 -95 -47 -41 -4 16 -24 101 -43 189 -53 245 -50 235 -91 235
-19 0 -37 -6 -39 -13z"/>
<path d="M5046 7663 c-17 -58 -126 -519 -126 -535 0 -13 6 -18 18 -16 12 2 23
26 38 85 12 45 25 86 29 92 6 11 122 15 149 5 9 -4 21 -35 32 -82 9 -43 21
-83 27 -89 15 -20 37 -15 37 7 0 24 -116 495 -130 528 -12 28 -66 32 -74 5z
m48 -60 c12 -39 56 -236 56 -249 0 -11 -16 -14 -66 -14 l-67 0 6 48 c9 75 48
232 57 232 5 0 11 -8 14 -17z"/>
<path d="M5245 7669 c-12 -18 8 -28 65 -31 l55 -3 5 -260 c5 -252 6 -260 25
-260 19 0 20 8 25 260 l5 260 60 5 c44 4 60 9 60 20 0 13 -24 15 -147 18 -100
2 -149 -1 -153 -9z"/>
<path d="M5632 7398 c3 -260 4 -283 21 -286 16 -3 17 16 17 282 0 280 0 286
-20 286 -20 0 -20 -5 -18 -282z"/>
<path d="M6227 7673 c-11 -10 -8 -536 2 -552 8 -13 12 -13 27 -1 15 13 16 37
13 237 -3 143 0 224 6 225 6 2 51 -100 101 -227 50 -126 98 -234 106 -239 9
-5 23 -6 32 -3 14 6 16 36 16 287 0 263 -1 281 -17 278 -16 -3 -18 -23 -21
-231 -1 -125 -6 -227 -11 -227 -5 0 -48 98 -96 218 -48 119 -91 223 -97 230
-11 13 -50 17 -61 5z"/>
<path d="M6800 7505 l0 -145 30 0 c29 0 30 2 30 43 0 24 5 48 12 55 9 9 73 12
225 12 l213 0 0 35 0 35 -209 0 c-236 0 -241 1 -241 71 0 37 -2 39 -30 39
l-30 0 0 -145z"/>
<path d="M7631 7462 c-62 -31 -75 -59 -75 -169 l-1 -98 280 0 c273 0 280 0
280 20 0 19 -8 20 -121 23 l-121 3 -6 69 c-3 37 -13 83 -22 100 -32 61 -144
89 -214 52z m148 -47 c36 -18 53 -60 49 -121 l-3 -49 -115 0 -115 0 -3 49 c-6
91 32 135 116 136 24 0 56 -7 71 -15z"/>
<path d="M10501 7419 c-55 -11 -65 -30 -69 -119 l-4 -80 211 0 c179 0 211 2
211 15 0 11 -20 15 -97 17 l-98 3 -3 41 c-5 67 20 88 114 94 49 3 79 10 82 18
6 18 -135 16 -168 -3 -47 -27 -51 -28 -63 -11 -16 22 -73 34 -116 25z m96 -44
c24 -17 39 -71 28 -105 -6 -19 -12 -21 -88 -18 l-82 3 -3 41 c-4 59 26 94 82
94 23 0 51 -7 63 -15z"/>
<path d="M2275 7360 c-45 -10 -71 -30 -97 -72 -62 -103 -61 -103 -103 -103
-38 0 -40 2 -43 32 -3 26 2 34 25 45 23 11 28 20 28 48 0 31 -3 35 -28 38 -19
2 -35 -5 -56 -26 -53 -52 -53 -151 -1 -204 24 -24 36 -28 83 -28 67 0 101 24
147 106 17 30 40 59 50 64 29 16 65 12 84 -9 23 -26 13 -57 -25 -76 -25 -13
-29 -21 -29 -55 0 -34 3 -40 20 -40 63 0 110 60 110 140 0 102 -70 162 -165
140z"/>
<path d="M1660 7222 c0 -109 -3 -131 -16 -136 -9 -3 -162 -6 -340 -6 l-324 0
0 -30 0 -30 370 0 370 0 -2 163 -3 162 -27 3 -28 3 0 -129z"/>
<path d="M7250 7227 c0 -61 -4 -88 -14 -96 -9 -7 -41 -11 -83 -9 l-68 3 -3 60
c-4 95 -8 107 -40 103 -26 -3 -27 -5 -30 -78 -2 -44 -8 -78 -15 -82 -19 -12
-112 -9 -125 4 -7 7 -12 43 -12 91 l0 78 -27 -3 -28 -3 -3 -122 -3 -123 256 0
255 0 0 125 c0 101 -3 125 -14 125 -8 0 -21 3 -30 6 -14 5 -16 -5 -16 -79z"/>
<path d="M10485 7111 c-39 -16 -60 -51 -60 -98 0 -38 5 -49 32 -73 41 -37 89
-50 186 -50 105 0 161 15 192 52 30 36 32 70 4 114 -18 30 -19 35 -5 40 40 15
7 24 -94 24 l-110 0 0 -50 c0 -27 5 -50 10 -50 6 0 10 9 10 19 0 41 11 51 56
51 94 0 150 -50 122 -108 -18 -37 -58 -53 -147 -59 -92 -7 -177 10 -208 39
-41 39 -26 102 30 121 9 4 17 13 17 22 0 17 -6 18 -35 6z"/>
<path d="M9430 7045 c-60 -19 -124 -75 -145 -127 -27 -68 -23 -167 10 -234 32
-65 73 -99 161 -130 144 -53 452 -54 592 -2 84 30 146 98 162 174 31 147 -40
280 -171 318 -88 27 -89 26 -89 -54 l0 -69 40 -11 c82 -22 122 -83 95 -147
-29 -70 -114 -93 -340 -94 -265 -1 -355 35 -355 142 0 39 56 99 92 99 46 0 59
20 56 85 -3 59 -4 60 -33 62 -16 1 -50 -4 -75 -12z"/>
<path d="M7954 6971 c-54 -33 -69 -80 -69 -216 0 -104 3 -125 22 -160 26 -50
62 -70 122 -69 56 1 93 23 118 72 26 53 26 272 0 320 -37 67 -128 92 -193 53z
m98 -42 c34 -18 48 -70 48 -176 0 -121 -18 -166 -66 -171 -58 -6 -84 49 -84
178 0 92 14 144 43 165 26 18 32 18 59 4z"/>
<path d="M8492 6970 c-54 -33 -72 -86 -72 -218 0 -124 11 -166 54 -199 59 -47
153 -34 193 26 33 48 30 71 -7 71 -23 0 -33 -6 -39 -23 -13 -33 -36 -49 -68
-45 -46 5 -63 53 -63 175 0 114 8 145 44 168 33 22 60 12 85 -30 36 -61 87
-39 60 26 -26 65 -121 89 -187 49z"/>
<path d="M7520 6975 c0 -5 80 -326 101 -407 9 -36 12 -38 50 -38 31 0 41 5 49
23 9 21 110 407 110 420 0 4 -15 7 -34 7 -34 0 -35 -1 -46 -57 -38 -186 -67
-297 -75 -293 -6 2 -24 72 -42 155 -18 82 -35 160 -38 173 -4 17 -12 22 -40
22 -19 0 -35 -2 -35 -5z"/>
<path d="M8260 6754 l0 -225 33 3 32 3 3 223 2 222 -35 0 -35 0 0 -226z"/>
<path d="M8770 6755 l0 -226 113 3 112 3 0 25 c0 24 -2 25 -75 28 -44 2 -78 8
-82 15 -10 16 -10 108 0 124 4 7 37 13 77 15 59 3 70 6 73 22 6 27 -15 36 -84
36 -47 0 -63 4 -68 16 -11 28 -6 91 7 102 7 6 44 12 82 14 62 3 70 5 70 23 0
19 -8 20 -112 23 l-113 3 0 -226z"/>
<path d="M7115 6956 c-38 -16 -78 -63 -111 -127 -26 -53 -48 -69 -92 -69 -66
0 -85 82 -25 110 27 12 33 21 33 48 0 27 -4 32 -22 32 -43 0 -86 -36 -98 -81
-25 -91 20 -172 103 -184 77 -12 120 16 169 108 38 70 69 97 114 97 84 0 103
-111 24 -138 -26 -9 -30 -16 -30 -46 0 -42 16 -46 69 -18 89 48 94 193 10 255
-34 25 -105 31 -144 13z"/>
<path d="M3436 6889 c-60 -15 -104 -46 -134 -97 -23 -41 -27 -57 -27 -127 1
-54 6 -90 17 -111 25 -47 86 -96 183 -149 135 -74 175 -126 175 -225 0 -46
-32 -115 -62 -133 -39 -25 -100 -30 -146 -11 -48 19 -74 50 -92 112 -13 41
-14 42 -57 42 -42 0 -43 -1 -43 -32 0 -41 39 -126 71 -155 39 -36 93 -53 166
-53 91 0 137 14 183 56 51 46 75 110 75 199 -1 129 -52 195 -219 285 -105 56
-142 92 -152 146 -23 124 57 208 166 175 43 -13 74 -48 87 -101 9 -33 12 -35
57 -38 l48 -3 -7 43 c-8 47 -28 92 -54 122 -43 49 -155 75 -235 55z"/>
<path d="M5640 6891 c-112 -23 -170 -101 -170 -228 0 -119 43 -176 194 -254
145 -76 182 -127 174 -245 -3 -54 -8 -68 -33 -94 -82 -85 -225 -48 -258 69
-14 46 -14 46 -62 49 l-48 3 7 -43 c12 -74 56 -139 116 -170 44 -24 65 -28
129 -28 104 0 172 33 216 104 28 46 30 56 30 145 0 74 -4 104 -18 129 -30 55
-91 106 -188 157 -108 58 -145 91 -160 147 -21 81 13 159 81 179 80 24 146
-14 171 -98 12 -42 13 -43 56 -43 42 0 43 1 43 33 -1 83 -73 167 -160 186 -56
12 -68 12 -120 2z"/>
<path d="M6246 6889 c-95 -23 -154 -94 -163 -196 -11 -127 40 -201 195 -285
52 -28 109 -65 126 -83 76 -76 69 -237 -12 -279 -104 -54 -213 -3 -237 112 -6
30 -9 32 -51 32 -41 0 -44 -2 -44 -26 0 -78 55 -163 124 -195 47 -21 158 -25
219 -8 21 6 56 26 77 45 52 47 75 110 74 200 -2 128 -53 196 -209 277 -139 73
-171 114 -163 213 4 45 10 61 35 85 37 38 93 47 146 26 35 -15 61 -53 81 -119
7 -23 96 -26 96 -5 0 29 -29 107 -50 137 -43 60 -154 92 -244 69z"/>
<path d="M1205 6871 c-123 -20 -180 -51 -216 -114 -28 -50 -24 -152 7 -194 60
-81 149 -108 354 -108 222 1 310 32 358 125 60 119 -3 236 -149 276 -64 17
-283 26 -354 15z m353 -82 c24 -6 59 -26 78 -44 29 -27 34 -39 34 -76 0 -78
-50 -118 -175 -140 -91 -16 -305 -7 -365 15 -89 33 -126 98 -97 169 18 41 56
65 137 84 67 15 325 10 388 -8z"/>
<path d="M1972 6423 l3 -458 160 0 c145 0 164 2 200 22 85 45 127 124 127 237
1 91 -21 145 -78 195 -24 21 -44 41 -44 45 0 4 15 20 34 37 92 80 77 279 -27
347 -39 26 -45 27 -209 30 l-168 3 2 -458z m302 363 c43 -28 66 -74 66 -134 0
-65 -21 -112 -58 -134 -32 -19 -147 -34 -186 -24 l-26 6 0 149 c0 81 3 151 8
155 14 15 168 1 196 -18z m-29 -377 c59 -16 102 -62 116 -124 21 -96 -8 -185
-73 -225 -27 -16 -51 -20 -125 -20 l-93 0 0 183 c0 101 3 187 7 190 10 11 124
8 168 -4z"/>
<path d="M2612 6498 c3 -366 4 -385 24 -428 41 -87 106 -123 224 -123 159 0
231 68 250 236 11 90 14 656 4 681 -4 11 -19 16 -50 16 l-43 0 -3 -372 c-3
-337 -5 -376 -21 -406 -26 -47 -72 -72 -132 -72 -65 0 -110 28 -135 83 -18 39
-20 69 -20 405 l0 362 -51 0 -50 0 3 -382z"/>
<path d="M3900 6420 l0 -460 45 0 45 0 0 460 0 460 -45 0 -45 0 0 -460z"/>
<path d="M4192 6423 l3 -458 43 -3 42 -3 0 382 c-1 210 1 384 4 387 7 7 10 1
165 -403 l138 -360 56 -3 57 -3 0 461 0 460 -40 0 -40 0 0 -365 c0 -215 -4
-365 -9 -365 -5 0 -32 57 -59 128 -27 70 -91 234 -142 365 l-93 237 -64 0 -63
0 2 -457z"/>
<path d="M4907 6873 c-9 -8 -9 -876 -1 -897 5 -14 34 -16 214 -16 l208 0 6 31
c3 17 6 35 6 40 0 5 -69 9 -154 9 -85 0 -161 3 -170 6 -14 5 -16 31 -16 179 0
148 2 174 16 179 9 3 78 6 155 6 l139 0 0 40 0 39 -152 3 -153 3 0 150 0 150
158 3 157 3 0 39 0 40 -203 0 c-112 0 -207 -3 -210 -7z"/>
<path d="M10430 6730 l0 -90 210 0 210 0 0 90 c0 108 -18 122 -22 18 l-3 -73
-90 0 -90 0 -3 68 c-3 80 -22 91 -22 13 0 -85 -1 -86 -85 -86 -84 0 -85 1 -85
91 0 33 -4 59 -10 59 -6 0 -10 -37 -10 -90z"/>
<path d="M7137 6600 c-48 -9 -80 -39 -123 -117 -48 -84 -66 -96 -126 -80 -52
14 -47 99 7 113 21 5 25 12 25 40 0 28 -4 34 -21 34 -30 0 -75 -29 -91 -58
-19 -36 -16 -124 6 -157 21 -31 72 -55 119 -55 50 0 96 37 142 114 47 80 81
103 134 90 66 -16 69 -101 6 -131 -30 -14 -35 -22 -35 -50 0 -28 4 -33 23 -33
62 0 117 70 117 147 0 101 -78 162 -183 143z"/>
<path d="M10430 6460 c0 -67 4 -110 10 -110 6 0 10 13 10 29 0 63 -6 61 206
61 166 0 194 2 194 15 0 13 -28 15 -188 15 -133 0 -192 4 -200 12 -7 7 -12 29
-12 50 0 21 -4 38 -10 38 -6 0 -10 -43 -10 -110z"/>
<path d="M980 6347 l0 -34 278 -67 c358 -87 365 -89 364 -101 0 -5 -20 -14
-44 -18 -56 -11 -511 -114 -560 -128 -35 -9 -38 -13 -38 -45 0 -29 3 -34 18
-30 9 3 172 44 361 91 188 47 347 88 352 91 5 3 9 23 9 44 0 28 -5 40 -17 44
-10 3 -169 44 -353 91 -184 47 -343 88 -352 91 -15 4 -18 -1 -18 -29z"/>
<path d="M7532 6123 c3 -180 4 -188 23 -188 19 0 20 8 23 188 l2 187 -25 0
-25 0 2 -187z"/>
<path d="M7677 6303 c-4 -3 -7 -86 -7 -184 0 -152 2 -178 16 -183 9 -3 20 -4
25 0 5 3 9 64 9 135 0 97 3 130 12 127 6 -2 32 -60 57 -128 46 -123 64 -149
95 -137 14 6 16 29 16 192 0 178 -1 185 -20 185 -19 0 -20 -7 -20 -126 0 -96
-3 -125 -12 -122 -7 3 -35 59 -62 126 -45 114 -50 122 -75 122 -15 0 -31 -3
-34 -7z"/>
<path d="M7968 6305 c-3 -3 15 -86 39 -185 36 -143 49 -181 64 -185 47 -15 54
-2 102 184 26 99 47 182 47 186 0 3 -12 5 -27 3 -26 -3 -28 -7 -59 -146 -30
-136 -38 -161 -49 -151 -2 3 -16 61 -30 129 -14 69 -30 135 -35 148 -9 20 -39
30 -52 17z"/>
<path d="M8282 6123 l3 -188 90 0 c83 0 90 1 90 20 0 17 -8 21 -65 25 l-65 5
0 60 0 60 63 3 c53 3 62 6 62 22 0 16 -9 19 -62 22 l-63 3 -3 45 c-4 56 13 70
86 70 46 0 53 3 50 18 -3 14 -17 17 -96 20 l-92 3 2 -188z"/>
<path d="M8565 6285 c-19 -18 -25 -35 -25 -68 0 -50 25 -80 97 -116 23 -12 47
-30 53 -40 40 -75 -46 -125 -103 -60 -15 17 -32 29 -39 27 -24 -8 -19 -38 10
-68 26 -26 38 -30 82 -30 44 0 56 4 81 29 24 24 29 38 29 76 0 54 -21 80 -97
119 -69 34 -85 81 -39 111 28 19 58 9 76 -25 6 -11 20 -20 30 -20 28 0 26 35
-5 65 -19 20 -34 25 -75 25 -41 0 -56 -5 -75 -25z"/>
<path d="M8797 6304 c-17 -18 -4 -33 36 -41 l42 -9 5 -159 c5 -152 6 -160 25
-160 19 0 20 8 25 160 l5 159 43 9 c33 6 42 13 40 25 -3 14 -19 17 -109 20
-58 1 -108 -1 -112 -4z"/>
<path d="M9082 6123 c3 -180 4 -188 23 -188 19 0 20 8 23 188 l2 187 -25 0
-25 0 2 -187z"/>
<path d="M9261 6284 c-37 -31 -51 -77 -51 -169 0 -87 13 -135 44 -164 21 -20
31 -22 68 -17 60 9 81 10 98 5 13 -3 15 12 15 96 l0 100 -45 0 c-35 0 -45 -4
-48 -17 -2 -12 6 -21 24 -28 24 -10 26 -14 21 -51 -8 -64 -39 -85 -87 -59 -51
27 -48 248 4 282 23 15 56 7 72 -17 10 -15 26 -25 40 -25 33 0 31 25 -5 61
-40 39 -105 41 -150 3z"/>
<path d="M9581 6273 c-49 -183 -78 -329 -68 -335 24 -15 36 -1 54 57 8 28 12
30 60 33 l52 3 12 -46 c12 -48 32 -66 51 -47 9 9 1 55 -27 174 -21 90 -42 171
-47 181 -6 11 -20 17 -43 17 -31 0 -35 -3 -44 -37z m68 -85 c21 -102 21 -103
-21 -106 -43 -4 -46 5 -27 88 19 89 33 94 48 18z"/>
<path d="M9757 6304 c-17 -18 -4 -33 36 -41 l42 -9 5 -159 c5 -152 6 -160 25
-160 19 0 20 8 25 160 l5 159 43 9 c33 6 42 13 40 25 -3 14 -19 17 -109 20
-58 1 -108 -1 -112 -4z"/>
<path d="M10042 6123 l3 -188 70 -3 c87 -4 117 3 113 26 -2 13 -17 18 -68 22
l-65 5 0 60 0 60 63 3 c53 3 62 6 62 22 0 16 -9 19 -62 22 l-63 3 -3 45 c-4
55 13 70 80 70 41 0 48 3 48 20 0 19 -7 20 -90 20 l-90 0 2 -187z"/>
<path d="M11301 6288 c-54 -29 -66 -61 -66 -171 0 -83 4 -108 19 -134 33 -54
88 -67 143 -33 39 23 53 67 53 165 0 83 -13 136 -39 159 -25 23 -80 30 -110
14z m65 -36 c25 -16 34 -55 34 -140 0 -76 -3 -93 -21 -116 -28 -36 -59 -31
-82 14 -25 48 -20 199 8 230 19 21 42 25 61 12z"/>
<path d="M11580 6288 c-43 -22 -63 -79 -62 -174 1 -98 21 -151 65 -172 37 -18
88 -8 116 22 52 56 51 251 -2 303 -28 29 -83 38 -117 21z m87 -55 c14 -20 18
-47 18 -108 0 -96 -8 -131 -35 -145 -45 -24 -73 9 -86 101 -17 128 52 230 103
152z"/>
<path d="M12085 6289 c-34 -19 -45 -41 -45 -85 0 -45 18 -66 100 -118 60 -37
52 -116 -11 -116 -19 0 -34 8 -45 25 -19 29 -54 34 -54 7 0 -10 12 -29 26 -43
20 -19 36 -24 76 -24 65 0 98 34 98 99 0 49 -20 75 -80 106 -54 27 -77 63 -62
95 16 35 68 35 84 0 13 -30 48 -34 48 -6 0 50 -86 88 -135 60z"/>
<path d="M10992 6273 c2 -12 15 -20 38 -23 l35 -5 3 -153 c3 -152 3 -153 25
-150 21 3 22 6 25 155 l3 152 37 3 c25 2 37 8 37 18 0 12 -19 16 -103 18 -95
2 -103 1 -100 -15z"/>
<path d="M11810 6115 l0 -175 86 0 c76 0 85 2 82 18 -2 13 -15 18 -61 20 l-57
3 0 154 0 155 -25 0 -25 0 0 -175z"/>
<path d="M10430 6270 c0 -6 64 -10 171 -10 132 0 170 -3 167 -12 -3 -7 -78
-42 -169 -78 -137 -55 -165 -69 -167 -88 l-3 -22 210 0 c131 0 211 4 211 10 0
6 -68 11 -170 12 -160 3 -195 10 -158 31 7 4 84 34 171 68 126 49 157 65 157
80 0 18 -10 19 -210 19 -133 0 -210 -4 -210 -10z"/>
<path d="M7130 6214 c-80 -19 -187 -44 -237 -55 l-93 -21 0 -54 c0 -30 2 -54
4 -54 2 0 113 -25 246 -55 133 -30 246 -55 251 -55 5 0 9 15 9 34 0 34 -1 34
-62 48 l-63 13 -3 67 c-3 75 -10 68 83 86 37 7 40 10 43 45 4 45 11 45 -178 1z
m-20 -128 c0 -25 -4 -47 -8 -50 -4 -2 -37 1 -72 9 -36 7 -82 16 -103 19 -23 4
-37 12 -34 19 3 12 136 44 190 46 26 1 27 -1 27 -43z"/>
<path d="M10430 5935 c0 -13 30 -15 210 -15 180 0 210 2 210 15 0 13 -30 15
-210 15 -180 0 -210 -2 -210 -15z"/>
<path d="M1006 5719 c-39 -11 -73 -45 -87 -86 -14 -44 -14 -186 0 -240 30
-111 178 -128 226 -26 27 55 31 203 8 267 -26 71 -82 104 -147 85z m69 -63
c28 -28 41 -109 31 -194 -10 -84 -24 -107 -66 -107 -51 0 -70 43 -70 157 0 92
10 135 37 156 24 18 41 15 68 -12z"/>
<path d="M2430 5719 c-43 -9 -76 -46 -91 -102 -14 -53 -7 -222 11 -260 25 -52
102 -73 149 -41 17 12 26 13 34 5 6 -6 19 -11 29 -11 16 0 18 11 18 110 l0
110 -54 0 c-30 0 -57 -4 -60 -9 -11 -18 6 -41 30 -41 22 0 24 -4 24 -43 0 -58
-23 -89 -63 -85 -46 4 -67 51 -67 148 0 95 14 146 46 167 30 19 68 6 79 -26 4
-15 15 -21 36 -21 34 0 36 13 9 57 -11 19 -31 35 -47 39 -15 3 -32 7 -38 8 -5
1 -26 -1 -45 -5z"/>
<path d="M9343 5719 c-49 -14 -63 -42 -63 -126 l0 -73 178 2 c175 3 177 3 180
26 3 21 0 22 -65 22 -78 0 -93 9 -93 58 0 46 -16 71 -55 88 -38 16 -38 16 -82
3z m68 -49 c18 0 41 -50 35 -75 -6 -23 -11 -25 -61 -25 -43 0 -56 4 -65 19
-21 40 27 99 68 85 8 -2 18 -4 23 -4z"/>
<path d="M0 5516 l0 -206 35 0 34 0 3 88 3 87 32 3 c49 5 73 -25 73 -92 0 -70
7 -86 36 -86 23 0 24 3 24 74 0 58 -4 79 -20 99 l-20 26 26 38 c32 48 28 103
-10 142 -24 24 -35 26 -121 29 l-95 4 0 -206z m173 132 c21 -25 22 -57 1 -86
-12 -17 -25 -22 -60 -22 l-44 0 0 64 c0 53 3 65 18 69 29 7 66 -4 85 -25z"/>
<path d="M330 5515 l0 -206 102 3 c89 3 103 5 106 21 3 15 -5 17 -62 17 -45 0
-69 5 -80 16 -19 19 -22 104 -4 122 7 7 38 12 70 12 55 0 58 1 58 25 0 24 -2
25 -64 25 -69 0 -76 5 -76 60 0 55 6 60 81 60 67 0 69 1 69 25 l0 25 -100 0
-100 0 0 -205z"/>
<path d="M610 5514 l0 -205 28 3 c26 3 27 5 32 83 5 76 6 80 30 83 68 7 90 15
114 39 22 21 26 35 26 80 0 95 -37 123 -161 123 l-69 0 0 -206z m127 155 c35
-13 43 -25 43 -71 0 -47 -21 -68 -71 -68 l-39 0 0 69 c0 81 10 92 67 70z"/>
<path d="M1250 5516 l0 -206 30 0 29 0 3 88 3 87 32 3 c49 5 73 -25 73 -92 0
-70 7 -86 36 -86 23 0 24 3 24 74 0 59 -4 78 -21 99 l-20 26 23 32 c34 45 32
110 -5 146 -25 26 -35 28 -117 31 l-90 4 0 -206z m163 132 c21 -25 22 -57 1
-86 -12 -17 -25 -22 -60 -22 l-44 0 0 64 c0 53 3 65 18 69 29 7 66 -4 85 -25z"/>
<path d="M1540 5696 c0 -22 5 -25 43 -28 l42 -3 3 -177 2 -178 30 0 30 0 2
178 3 177 43 3 c37 3 42 6 42 28 l0 24 -120 0 -120 0 0 -24z"/>
<path d="M1847 5713 c-4 -3 -7 -96 -7 -205 l0 -198 30 0 30 0 0 205 0 205 -23
0 c-13 0 -27 -3 -30 -7z"/>
<path d="M2000 5516 l0 -206 25 0 25 0 0 146 c0 104 3 145 11 142 7 -2 35 -67
63 -143 l51 -140 38 -3 37 -3 -2 203 c-3 202 -3 203 -25 206 -23 3 -23 2 -23
-125 0 -135 -10 -177 -30 -132 -6 13 -30 76 -54 139 l-43 115 -37 3 -36 3 0
-205z"/>
<path d="M10313 5709 c-89 -18 -118 -72 -117 -219 0 -88 3 -112 22 -147 29
-56 69 -77 139 -71 99 8 136 71 136 228 0 89 -21 160 -57 189 -22 18 -84 29
-123 20z m92 -43 c30 -31 45 -85 45 -169 0 -133 -35 -201 -105 -201 -40 0 -72
25 -91 71 -19 43 -18 213 0 257 28 67 105 88 151 42z"/>
<path d="M9904 5700 c-57 -23 -73 -112 -29 -156 14 -14 53 -38 88 -53 103 -46
134 -109 83 -168 -33 -38 -102 -40 -140 -4 -14 14 -26 30 -26 37 0 19 -30 26
-37 8 -17 -44 51 -94 126 -94 88 0 141 43 141 116 0 57 -26 86 -114 128 -77
36 -106 65 -106 104 0 36 43 72 85 72 35 0 85 -35 85 -60 0 -5 9 -10 20 -10
29 0 25 27 -9 61 -26 26 -36 29 -88 28 -32 0 -68 -4 -79 -9z"/>
<path d="M10607 5704 c-4 -4 -7 -101 -7 -216 0 -201 1 -208 20 -208 18 0 20 7
20 86 0 120 3 124 100 124 47 0 80 4 80 10 0 6 -31 10 -74 10 -94 0 -106 10
-106 88 0 31 4 62 8 69 5 8 41 13 95 15 48 2 88 8 90 13 2 11 -215 20 -226 9z"/>
<path d="M10902 5698 c3 -8 28 -15 59 -18 l54 -5 3 -197 c2 -189 3 -198 22
-198 19 0 20 9 22 198 l3 197 58 3 c42 2 57 7 57 17 0 12 -24 15 -141 15 -108
0 -140 -3 -137 -12z"/>
<path d="M11250 5693 c1 -10 22 -106 48 -213 46 -187 49 -195 73 -198 25 -3
27 1 59 125 53 209 55 214 65 216 6 1 26 -63 46 -143 19 -80 39 -158 43 -173
5 -23 11 -28 33 -25 26 3 28 10 74 186 67 257 64 242 41 242 -21 0 -24 -11
-87 -288 -10 -43 -21 -72 -28 -69 -8 2 -88 297 -97 355 0 2 -10 2 -22 0 -21
-3 -27 -20 -67 -181 -26 -103 -49 -176 -55 -174 -6 2 -19 41 -29 88 -51 244
-58 269 -78 269 -12 0 -19 -7 -19 -17z"/>
<path d="M11895 5698 c-3 -7 -30 -98 -60 -203 -31 -104 -58 -196 -60 -203 -3
-9 2 -12 17 -10 17 2 25 15 37 60 9 31 21 62 27 68 6 6 39 10 80 8 l69 -3 21
-65 c16 -51 25 -66 43 -68 26 -4 30 -21 -48 233 l-57 190 -32 3 c-20 2 -34 -2
-37 -10z m59 -90 c40 -139 41 -149 26 -158 -17 -11 -71 -13 -94 -4 -21 8 -20
29 5 121 31 115 40 120 63 41z"/>
<path d="M12174 5697 c-2 -7 -3 -102 -2 -212 3 -192 4 -200 23 -200 18 0 20 8
23 98 l3 97 58 0 c88 0 105 -17 111 -117 5 -73 7 -78 29 -81 21 -3 23 -1 18
20 -4 12 -7 49 -7 81 0 48 -4 62 -25 83 -14 14 -25 27 -25 30 0 3 12 15 26 27
17 15 27 36 30 62 10 86 -43 125 -174 125 -58 0 -84 -4 -88 -13z m187 -27 c22
-12 38 -60 32 -94 -9 -44 -47 -66 -114 -66 l-59 0 0 84 c0 58 4 86 13 90 16 7
106 -3 128 -14z"/>
<path d="M12550 5495 l0 -215 120 0 c145 0 163 18 23 22 l-98 3 -3 92 -3 92
87 3 c57 2 89 7 91 15 3 9 -20 13 -84 15 l-88 3 -3 77 -3 77 92 3 c63 2 94 7
97 16 3 9 -24 12 -112 12 l-116 0 0 -215z"/>
<path d="M8040 5691 c-126 -41 -196 -149 -221 -341 -15 -113 -6 -345 16 -434
24 -92 68 -153 136 -191 49 -27 63 -30 144 -30 81 0 95 3 143 29 29 17 66 48
83 70 30 42 59 121 59 163 0 22 -3 23 -75 23 -52 0 -77 -4 -79 -12 -19 -76
-34 -104 -65 -125 -60 -40 -126 -22 -160 45 -34 67 -43 148 -39 348 3 179 5
192 30 246 38 81 100 108 167 73 29 -15 61 -68 61 -103 0 -33 24 -43 92 -40
l63 3 -1 50 c-2 86 -54 169 -129 208 -44 22 -179 33 -225 18z"/>
<path d="M8708 5690 c-115 -34 -178 -123 -178 -249 0 -130 52 -199 210 -281
155 -79 190 -119 190 -213 0 -165 -213 -178 -261 -17 l-12 40 -73 0 c-40 0
-75 -4 -78 -9 -12 -19 17 -113 47 -158 23 -34 48 -56 91 -78 55 -27 68 -30
155 -29 116 1 167 20 228 87 49 53 66 105 65 199 0 85 -33 161 -90 209 -22 19
-91 61 -154 95 -129 69 -158 100 -158 171 0 85 50 132 128 120 44 -8 77 -42
92 -97 l11 -40 76 0 76 0 -6 51 c-12 96 -71 167 -164 195 -50 15 -152 17 -195
4z"/>
<path d="M3606 5681 c-5 -7 -200 -835 -223 -943 l-5 -28 79 0 80 0 23 113 c12
61 27 118 32 125 7 8 44 12 118 12 74 0 111 -4 117 -12 6 -7 16 -42 22 -78 7
-36 17 -86 23 -112 l10 -48 79 0 c69 0 79 2 79 18 0 29 -213 936 -223 950 -11
14 -202 17 -211 3z m154 -366 c22 -109 37 -202 34 -206 -8 -14 -174 -11 -174
3 0 11 63 342 76 397 10 47 25 3 64 -194z"/>
<path d="M4160 5200 l0 -490 71 0 70 0 -2 355 c-1 196 1 358 4 362 8 7 1 24
139 -357 60 -168 114 -317 120 -332 10 -28 11 -28 99 -28 l89 0 -2 488 -3 487
-65 0 -65 0 -3 -337 c-1 -186 -6 -338 -11 -338 -4 0 -31 64 -60 143 -28 78
-84 230 -125 337 l-73 195 -92 3 -91 3 0 -491z"/>
<path d="M5096 5681 c-7 -10 -25 -85 -142 -590 -46 -200 -84 -368 -84 -373 0
-5 35 -8 78 -6 l77 3 24 115 c13 63 28 118 35 122 20 13 223 9 233 -4 6 -7 18
-56 28 -108 9 -52 19 -103 22 -112 4 -15 17 -18 84 -18 66 0 79 3 79 16 0 23
-208 915 -220 942 -9 21 -15 22 -109 22 -55 0 -102 -4 -105 -9z m153 -367 c22
-109 37 -202 34 -206 -2 -5 -42 -8 -89 -8 -75 0 -84 2 -84 18 0 16 59 323 75
391 12 47 26 3 64 -195z"/>
<path d="M5650 5200 l0 -490 239 0 239 0 6 31 c3 17 6 47 6 65 l0 34 -162 2
-163 3 -5 420 c-3 231 -7 421 -8 423 -1 1 -36 2 -77 2 l-75 0 0 -490z"/>
<path d="M6050 5682 c0 -5 55 -141 123 -303 l122 -294 3 -187 3 -188 80 0 79
0 0 180 0 181 124 302 c69 166 122 305 120 309 -3 4 -39 8 -79 8 -61 0 -76 -3
-83 -17 -5 -10 -40 -109 -77 -220 -38 -112 -73 -203 -79 -203 -6 0 -40 84 -75
188 -35 103 -69 202 -77 220 l-13 32 -85 0 c-48 0 -86 -4 -86 -8z"/>
<path d="M6784 5676 c-3 -7 -4 -38 -2 -67 l3 -54 94 -3 c52 -1 101 -8 108 -14
10 -8 13 -95 13 -419 l0 -409 80 0 80 0 2 418 3 417 103 3 103 3 -3 67 -3 67
-288 3 c-237 2 -288 0 -293 -12z"/>
<path d="M7497 5684 c-4 -4 -7 -225 -7 -491 l0 -483 80 0 80 0 -2 488 -3 487
-70 3 c-39 1 -74 0 -78 -4z"/>
<path d="M2980 5636 l-175 -42 0 -39 0 -40 160 -36 c236 -55 215 -52 215 -25
0 24 -17 36 -50 36 -28 0 -50 28 -50 63 0 44 10 55 55 65 34 6 41 12 43 35 2
18 -1 27 -10 26 -7 0 -92 -20 -188 -43z m58 -80 c2 -16 -2 -32 -8 -36 -14 -8
-140 16 -154 30 -6 6 -4 11 5 15 34 12 96 23 124 22 25 -2 31 -7 33 -31z"/>
<path d="M9447 5425 c-77 -19 -145 -36 -153 -39 -8 -3 -14 -20 -14 -40 0 -29
4 -37 23 -41 165 -39 324 -75 330 -75 5 0 7 10 5 22 -2 15 -13 24 -38 31 -48
12 -60 24 -60 61 0 43 10 54 55 64 30 6 41 13 43 30 5 30 -19 28 -191 -13z
m53 -80 c0 -32 -3 -35 -27 -34 -44 1 -124 23 -126 34 -2 12 73 33 121 34 30 1
32 -1 32 -34z"/>
<path d="M2804 5417 c-3 -8 -3 -56 -2 -108 3 -86 5 -94 23 -94 16 0 21 8 23
36 4 47 10 49 190 49 l142 0 0 25 0 25 -162 2 -163 3 -3 38 c-3 29 -7 37 -23
37 -11 0 -22 -6 -25 -13z"/>
<path d="M2978 5170 c-86 -21 -162 -41 -167 -45 -6 -3 -11 -20 -11 -36 0 -37
6 -40 196 -84 181 -42 186 -42 182 -13 -2 18 -12 25 -46 32 -46 10 -57 27 -50
82 3 25 10 31 51 43 38 12 47 19 47 38 0 30 -9 29 -202 -17z m62 -80 c0 -16
-5 -32 -10 -35 -14 -8 -149 15 -156 27 -9 14 -1 18 72 32 83 15 94 12 94 -24z"/>
<path d="M9600 5126 c0 -44 -4 -57 -19 -66 -11 -5 -83 -10 -160 -10 -134 0
-141 -1 -141 -20 0 -19 7 -20 180 -20 l181 0 -3 82 c-3 70 -6 83 -20 86 -15 3
-18 -5 -18 -52z"/>
<path d="M9912 5125 c-53 -24 -76 -87 -76 -210 1 -104 12 -142 52 -178 48 -44
147 -26 177 33 9 18 14 38 11 46 -8 20 -45 17 -53 -3 -19 -54 -66 -69 -99 -32
-17 18 -19 37 -19 144 0 107 2 126 19 144 11 12 29 21 41 21 23 0 55 -28 55
-48 0 -15 40 -26 52 -14 14 14 0 57 -27 82 -29 28 -90 35 -133 15z"/>
<path d="M10462 5120 c-41 -25 -62 -73 -69 -159 -15 -181 65 -286 180 -237 56
23 81 84 80 201 -1 111 -17 162 -62 192 -42 28 -86 29 -129 3z m104 -51 c17
-18 19 -37 19 -144 0 -107 -2 -126 -19 -144 -23 -26 -57 -27 -79 -3 -43 47
-46 235 -6 287 25 30 59 32 85 4z"/>
<path d="M10150 4925 l0 -205 100 0 c59 0 101 4 102 10 4 33 1 35 -67 40 l-70
5 -3 178 -2 177 -30 0 -30 0 0 -205z"/>
<path d="M10730 4968 c0 -135 3 -169 18 -198 32 -65 138 -78 199 -25 l28 23 3
181 3 181 -30 0 -31 0 0 -163 c0 -131 -3 -167 -16 -185 -22 -31 -67 -29 -93 4
-19 24 -21 40 -21 185 l0 159 -30 0 -30 0 0 -162z"/>
<path d="M11070 4925 l0 -205 73 0 c135 0 171 45 172 210 0 91 -3 110 -22 141
-30 47 -59 59 -148 59 l-75 0 0 -205z m128 154 c42 -15 57 -56 57 -161 0 -97
-17 -134 -68 -151 -52 -17 -57 -1 -57 163 0 167 2 172 68 149z"/>
<path d="M2131 5093 c-40 -40 -54 -100 -49 -203 7 -125 36 -172 107 -174 78
-2 111 57 111 196 0 151 -21 195 -99 205 -35 5 -44 2 -70 -24z m104 -15 c50
-44 57 -243 10 -315 -13 -19 -23 -24 -52 -21 -57 5 -76 39 -81 145 -8 171 47
256 123 191z"/>
<path d="M614 5097 c-2 -7 -3 -94 -2 -192 l3 -180 63 -3 c76 -4 106 12 129 66
18 42 6 97 -27 127 -19 17 -19 18 0 43 29 36 27 96 -5 127 -21 22 -33 25 -90
25 -44 0 -67 -4 -71 -13z m141 -27 c24 -26 25 -85 2 -107 -10 -11 -34 -17 -64
-17 l-48 -1 -3 59 c-4 80 -1 86 51 86 32 0 49 -6 62 -20z m5 -170 c38 -38 38
-102 -1 -141 -16 -16 -30 -19 -67 -17 l-47 3 -3 74 c-2 41 -1 80 2 88 9 21 92
17 116 -7z"/>
<path d="M892 4918 l3 -193 88 -3 c53 -2 87 1 87 7 0 6 -33 11 -72 13 l-73 3
-3 79 c-2 57 1 82 10 87 7 5 40 9 72 9 78 0 62 18 -19 22 l-60 3 0 70 0 70 68
3 c97 4 83 22 -18 22 l-85 0 2 -192z"/>
<path d="M1140 4915 c0 -167 2 -195 15 -195 12 0 15 17 15 94 0 105 1 106 75
106 75 0 75 -1 75 -107 0 -71 3 -94 13 -91 9 4 13 54 15 196 2 164 0 192 -12
192 -12 0 -16 -18 -18 -82 l-3 -83 -70 0 -70 0 -3 83 c-2 64 -6 82 -17 82 -13
0 -15 -31 -15 -195z"/>
<path d="M1501 5073 c-42 -163 -82 -345 -78 -350 12 -11 26 9 32 50 12 72 19
78 83 75 l56 -3 14 -55 c14 -56 27 -79 38 -68 3 4 -15 92 -41 197 -44 181 -48
191 -71 191 -19 0 -25 -7 -33 -37z m62 -92 c10 -45 16 -89 13 -97 -7 -18 -69
-19 -84 -1 -10 11 -8 25 24 165 9 43 29 16 47 -67z"/>
<path d="M1670 5095 c0 -9 16 -80 36 -158 56 -227 53 -217 74 -217 22 0 17
-12 70 195 23 88 44 168 46 178 3 10 0 17 -9 17 -10 0 -25 -47 -52 -160 -39
-161 -49 -190 -60 -178 -4 3 -23 79 -43 169 -21 92 -42 164 -49 167 -7 2 -13
-4 -13 -13z"/>
<path d="M1970 4916 c0 -122 4 -196 10 -196 17 0 21 42 18 214 -2 125 -6 170
-15 174 -10 3 -13 -40 -13 -192z"/>
<path d="M2390 4914 c0 -152 3 -195 13 -192 8 3 14 35 17 94 5 84 6 89 29 92
69 10 101 -21 101 -98 0 -63 7 -90 22 -90 6 0 9 31 7 79 -3 59 -9 84 -23 99
-18 21 -18 22 3 48 15 19 21 41 21 75 0 68 -28 89 -121 89 l-69 0 0 -196z
m142 159 c25 -29 30 -59 14 -97 -16 -38 -42 -50 -92 -44 -29 3 -29 3 -32 81
l-3 77 49 0 c34 0 54 -5 64 -17z"/>
<path d="M9334 4911 c-53 -24 -72 -71 -54 -127 17 -51 70 -73 177 -74 132 0
183 30 183 110 0 80 -51 110 -183 110 -59 0 -94 -6 -123 -19z m236 -46 c23
-12 30 -22 30 -46 0 -41 -44 -59 -147 -59 -80 0 -118 12 -137 43 -13 21 0 46
35 64 35 18 183 17 219 -2z"/>
<path d="M2885 4905 c-22 -8 -48 -24 -57 -35 -19 -24 -31 -88 -26 -140 l3 -35
185 0 185 0 0 78 c0 73 -2 80 -28 102 -15 13 -44 29 -65 34 -52 15 -149 13
-197 -4z m237 -75 c10 -12 18 -35 18 -51 l0 -29 -144 0 c-158 0 -165 3 -145
59 16 47 78 62 194 49 44 -5 64 -12 77 -28z"/>
<path d="M1173 4493 c-36 -7 -81 -56 -88 -96 -15 -78 12 -116 123 -176 103
-55 125 -99 81 -155 -36 -45 -106 -33 -129 24 -11 26 -17 30 -52 30 -40 0 -40
0 -34 -32 19 -95 163 -137 262 -77 29 17 39 34 58 93 10 29 -13 96 -42 124
-15 13 -54 37 -87 52 -72 33 -98 60 -98 100 0 42 19 60 65 60 34 0 41 -4 59
-35 17 -29 27 -35 55 -35 29 0 34 3 34 24 0 32 -36 75 -76 92 -32 13 -84 16
-131 7z"/>
<path d="M4250 4489 c-43 -18 -80 -61 -95 -113 -18 -59 -19 -184 -4 -258 22
-102 109 -155 209 -128 92 25 124 91 124 260 0 92 -3 112 -24 155 -14 27 -37
58 -52 69 -31 22 -120 31 -158 15z m99 -59 c34 -17 51 -83 50 -188 0 -111 -13
-157 -51 -185 -23 -17 -31 -18 -57 -8 -49 21 -65 69 -65 196 0 84 4 118 17
142 26 49 66 65 106 43z"/>
<path d="M7700 4478 c-82 -42 -114 -153 -69 -244 21 -44 47 -64 169 -134 70
-39 90 -69 90 -133 0 -57 -30 -87 -86 -87 -50 0 -79 20 -94 65 -11 34 -13 35
-66 35 -59 0 -58 1 -44 -52 29 -102 131 -154 255 -128 110 23 167 116 144 235
-13 71 -51 111 -155 167 -49 27 -97 58 -106 69 -25 29 -23 90 3 123 39 49 120
27 137 -37 8 -30 11 -32 60 -35 49 -3 52 -2 52 20 0 13 -10 44 -22 68 -30 58
-89 90 -168 90 -38 0 -70 -7 -100 -22z"/>
<path d="M8225 4485 c-47 -24 -91 -80 -111 -143 -26 -77 -26 -300 -1 -383 35
-118 90 -163 196 -163 105 0 162 43 198 146 26 77 26 329 0 408 -25 74 -52
109 -101 131 -50 23 -140 25 -181 4z m134 -85 c34 -18 54 -88 59 -209 6 -150
-10 -245 -49 -283 -34 -35 -68 -36 -107 -3 -42 35 -57 103 -57 255 1 133 12
188 48 228 22 24 74 30 106 12z"/>
<path d="M9813 4480 c-53 -23 -97 -89 -114 -169 -16 -72 -16 -269 0 -343 27
-127 118 -192 242 -172 76 12 136 75 154 162 l7 32 -55 0 c-53 0 -55 -1 -61
-30 -8 -40 -48 -80 -81 -80 -35 0 -80 46 -94 96 -6 21 -11 98 -11 170 0 198
27 264 107 264 38 0 69 -27 79 -67 9 -36 20 -43 67 -43 47 0 54 15 33 78 -18
53 -55 95 -99 111 -44 17 -127 13 -174 -9z"/>
<path d="M10744 4481 c-59 -27 -87 -72 -92 -146 -3 -48 0 -71 17 -102 23 -45
45 -64 139 -113 86 -45 122 -88 122 -144 0 -64 -29 -96 -86 -96 -50 0 -88 28
-100 74 -6 24 -10 26 -60 26 -59 0 -58 1 -44 -52 13 -45 52 -93 94 -115 47
-25 160 -23 213 5 64 33 87 74 91 158 6 115 -30 164 -177 238 -79 40 -101 66
-101 119 0 51 30 87 74 87 42 0 62 -15 80 -60 16 -41 17 -41 64 -38 l47 3 -3
35 c-4 52 -32 92 -82 118 -56 28 -138 29 -196 3z"/>
<path d="M455 4468 c4 -13 34 -124 68 -248 l62 -225 46 -3 c29 -2 49 2 56 10
10 13 133 453 133 476 0 7 -15 12 -40 12 -33 0 -41 -4 -45 -22 -3 -13 -23 -99
-45 -192 -39 -171 -54 -210 -64 -165 -3 13 -19 87 -36 164 -51 231 -43 215
-96 215 -41 0 -44 -2 -39 -22z"/>
<path d="M900 4239 l0 -250 38 3 37 3 3 248 2 247 -40 0 -40 0 0 -251z"/>
<path d="M1480 4288 c0 -184 2 -206 20 -235 31 -51 64 -67 139 -67 79 -1 127
22 153 74 15 30 18 64 18 233 l0 197 -39 0 -39 0 -4 -200 c-3 -191 -4 -200
-25 -222 -30 -30 -86 -30 -116 0 -21 22 -22 31 -25 222 l-3 200 -40 0 -39 0 0
-202z"/>
<path d="M1995 4478 c-16 -50 -115 -450 -115 -467 0 -19 5 -22 37 -19 35 3 37
5 48 53 6 28 15 56 19 63 9 15 132 16 142 1 4 -6 12 -35 18 -63 11 -48 13 -51
45 -54 18 -2 37 0 42 5 4 4 -19 117 -53 251 l-61 242 -59 0 c-38 0 -60 -4 -63
-12z m94 -178 c22 -106 18 -120 -33 -120 -58 0 -60 7 -36 115 11 54 23 102 27
107 11 18 21 -8 42 -102z"/>
<path d="M2315 4478 c-3 -7 -4 -119 -3 -248 l3 -235 131 -3 c129 -3 132 -2
138 20 3 13 6 26 6 30 0 4 -42 9 -92 10 l-93 3 -5 215 -5 215 -38 3 c-24 2
-39 -1 -42 -10z"/>
<path d="M2662 4243 l3 -248 38 -3 37 -3 0 250 0 251 -40 0 -40 0 2 -247z"/>
<path d="M2840 4460 l0 -30 93 0 c52 0 96 -3 100 -6 8 -8 -13 -50 -117 -224
-90 -149 -105 -185 -89 -201 5 -5 73 -8 159 -7 l149 3 3 28 3 27 -83 0 c-84 0
-128 7 -128 19 0 4 47 87 105 186 72 122 105 188 103 205 l-3 25 -147 3 -148
3 0 -31z"/>
<path d="M3324 4477 c-15 -40 -121 -477 -116 -481 3 -4 20 -6 38 -6 31 0 34 3
44 43 22 89 22 88 97 85 l68 -3 16 -60 c15 -57 17 -60 49 -63 18 -2 36 0 41 5
7 7 -103 462 -117 485 -9 14 -114 9 -120 -5z m94 -177 c20 -88 20 -96 5 -107
-19 -15 -62 -17 -82 -4 -11 7 -10 25 8 106 33 148 38 148 69 5z"/>
<path d="M3560 4460 c0 -29 1 -30 48 -30 26 0 53 -5 60 -12 9 -9 12 -72 12
-221 l0 -208 38 3 37 3 5 215 5 215 58 3 c56 3 57 4 57 32 l0 30 -160 0 -160
0 0 -30z"/>
<path d="M3960 4239 l0 -250 38 3 37 3 3 248 2 247 -40 0 -40 0 0 -251z"/>
<path d="M4590 4239 l0 -250 33 3 32 3 3 178 c1 97 6 177 11 177 5 0 39 -75
76 -167 37 -93 71 -174 77 -180 6 -7 28 -13 49 -13 32 0 40 4 44 23 3 12 4
123 3 247 l-3 225 -37 3 -38 3 0 -173 c0 -145 -2 -170 -13 -158 -8 8 -42 86
-77 173 l-64 157 -48 0 -48 0 0 -251z"/>
<path d="M6650 4150 l0 -340 50 0 50 0 0 133 c0 163 5 173 76 163 32 -4 57
-15 74 -31 22 -23 25 -34 30 -142 l5 -118 53 -3 52 -3 0 38 c-1 21 -5 82 -9
136 -7 86 -11 101 -34 125 -32 34 -33 43 -6 68 36 32 52 76 52 136 -1 77 -27
126 -83 155 -39 21 -57 23 -177 23 l-133 0 0 -340z m235 246 c72 -30 72 -162
0 -192 -42 -17 -107 -18 -123 -2 -15 15 -16 161 -2 189 13 23 74 26 125 5z"/>
<path d="M7160 4150 l0 -340 174 0 174 0 4 38 c3 21 0 40 -6 44 -6 4 -62 8
-124 8 l-113 0 3 108 3 107 108 3 107 3 0 44 0 44 -107 3 -108 3 0 90 0 90
113 3 112 3 0 44 0 45 -170 0 -170 0 0 -340z"/>
<path d="M8640 4240 c0 -271 8 -334 47 -381 41 -48 79 -63 163 -63 109 0 175
44 200 132 5 21 10 150 10 300 l0 262 -55 0 -55 0 0 -267 c0 -248 -2 -270 -20
-300 -23 -39 -79 -54 -119 -32 -56 31 -61 60 -61 342 l0 257 -55 0 -55 0 0
-250z"/>
<path d="M9190 4150 l0 -340 55 0 55 0 0 144 c0 122 2 145 16 150 22 9 43 7
86 -5 51 -14 68 -48 68 -141 0 -40 3 -90 6 -110 7 -38 7 -38 57 -38 l49 0 -4
123 c-4 125 -20 181 -54 194 -21 8 -17 27 12 54 86 78 66 235 -36 287 -39 19
-59 22 -177 22 l-133 0 0 -340z m268 225 c21 -25 24 -36 20 -82 -7 -77 -30
-98 -111 -98 l-62 0 -3 94 c-1 52 0 101 3 109 4 11 19 13 67 10 52 -4 65 -9
86 -33z"/>
<path d="M10200 4150 l0 -340 173 2 172 3 0 40 0 40 -115 3 c-76 2 -117 7
-122 15 -11 18 -10 165 2 188 10 17 22 19 115 19 l105 0 0 45 0 45 -103 0
c-67 0 -107 4 -115 12 -12 12 -17 134 -6 162 5 13 25 16 120 16 l114 0 0 45 0
45 -170 0 -170 0 0 -340z"/>
<path d="M5520 4395 l0 -85 -75 0 -74 0 -3 77 c-3 67 -6 78 -22 81 -27 6 -36
-15 -36 -91 l0 -68 -62 3 -63 3 -3 78 c-3 74 -4 77 -27 77 l-25 0 0 -115 0
-115 223 2 222 3 3 95 c4 120 -1 140 -33 140 -25 0 -25 -1 -25 -85z"/>
<path d="M5777 4453 c-4 -3 -7 -31 -7 -60 l0 -54 196 2 c107 1 198 -1 201 -4
8 -9 -21 -20 -219 -82 l-178 -56 0 -75 0 -74 325 0 325 0 0 55 0 55 -210 0
c-125 0 -210 4 -210 9 0 9 63 30 320 108 l95 29 3 77 3 77 -319 0 c-175 0
-322 -3 -325 -7z"/>
<path d="M5132 4028 c3 -135 4 -143 23 -143 17 0 21 8 25 50 l5 50 195 5 195
5 0 30 0 30 -184 3 c-115 1 -189 7 -198 13 -7 7 -13 31 -13 55 0 40 -2 44 -25
44 l-26 0 3 -142z"/>
<path d="M5920 3924 c-105 -28 -160 -95 -160 -197 0 -94 40 -157 121 -191 65
-27 198 -39 300 -26 159 19 227 63 248 158 29 135 -37 232 -177 261 -75 16
-266 13 -332 -5z m377 -150 c54 -40 38 -93 -35 -114 -48 -13 -286 -13 -334 0
-36 10 -68 41 -68 66 0 23 36 56 70 64 19 5 103 8 187 7 136 -2 154 -4 180
-23z"/>
<path d="M5130 3785 l0 -35 219 0 c144 0 222 4 226 11 4 5 4 21 1 35 l-6 24
-220 0 -220 0 0 -35z"/>
<path d="M1635 3778 c-3 -7 -4 -110 -3 -227 2 -161 6 -215 16 -219 15 -5 18
443 2 453 -6 3 -12 0 -15 -7z"/>
<path d="M1787 3783 c-11 -10 -8 -441 2 -448 18 -11 23 41 20 203 -3 111 0
166 7 169 5 2 44 -81 85 -184 61 -154 78 -188 94 -188 19 0 20 8 20 223 0 140
-4 223 -10 225 -6 1 -11 -65 -13 -180 -1 -101 -6 -183 -11 -183 -10 0 -19 20
-93 205 -62 155 -79 181 -101 158z"/>
<path d="M2097 3784 c-16 -16 -5 -23 41 -26 l47 -3 5 -209 c4 -155 8 -210 18
-214 9 -3 12 42 12 200 0 145 3 207 12 216 7 7 32 12 56 12 30 0 42 4 40 13
-5 13 -218 23 -231 11z"/>
<path d="M2405 3778 c-3 -8 -4 -110 -3 -228 l3 -215 94 0 c67 0 96 4 99 13 3
9 -17 12 -76 12 -93 0 -92 -1 -92 100 0 100 0 100 87 100 55 0 74 3 71 13 -3
7 -32 14 -79 17 l-74 5 -3 60 c-5 102 -4 104 86 107 108 4 97 22 -16 26 -69 2
-94 -1 -97 -10z"/>
<path d="M2684 3777 c-2 -7 -3 -109 -2 -227 l3 -215 94 0 c65 0 96 4 98 12 3
9 -18 13 -74 15 l-78 3 -3 207 c-2 173 -5 207 -18 212 -8 3 -17 0 -20 -7z"/>
<path d="M2955 3778 c-3 -7 -4 -110 -3 -228 l3 -215 94 0 c65 0 96 4 98 12 3
9 -18 13 -74 15 l-78 3 -3 201 c-2 163 -5 204 -17 214 -12 10 -16 9 -20 -2z"/>
<path d="M3225 3778 c-3 -7 -4 -110 -3 -227 2 -161 6 -215 16 -219 15 -5 18
443 2 453 -6 3 -12 0 -15 -7z"/>
<path d="M3411 3764 c-40 -33 -61 -105 -61 -209 0 -100 21 -177 57 -204 34
-27 92 -27 126 -1 30 24 37 25 37 5 0 -8 7 -15 15 -15 12 0 15 19 15 115 l0
115 -55 0 c-30 0 -55 -4 -55 -10 0 -5 11 -10 24 -10 41 0 54 -22 49 -82 -11
-126 -114 -158 -160 -50 -23 54 -21 223 2 281 33 79 121 87 151 15 21 -51 50
-44 32 7 -24 70 -118 93 -177 43z"/>
<path d="M3705 3778 c-3 -8 -4 -110 -3 -228 l3 -215 98 -3 c82 -2 97 0 97 13
0 12 -14 15 -75 15 -88 0 -95 7 -95 100 0 92 7 100 90 100 56 0 70 3 70 15 0
12 -15 15 -74 15 -83 0 -86 3 -86 88 0 74 9 82 96 82 56 0 75 3 72 13 -7 18
-186 23 -193 5z"/>
<path d="M3997 3784 c-4 -4 -7 -108 -7 -231 0 -175 3 -224 13 -220 9 3 12 50
13 186 1 165 5 203 19 190 2 -3 37 -88 78 -189 60 -152 76 -185 92 -185 19 0
20 8 20 223 0 140 -4 223 -10 225 -6 1 -11 -65 -13 -180 -1 -101 -6 -183 -11
-183 -5 0 -42 82 -82 182 -69 171 -90 204 -112 182z"/>
<path d="M4380 3762 c-38 -38 -50 -88 -50 -207 0 -169 30 -225 119 -225 55 0
88 20 107 66 18 42 18 44 -4 44 -11 0 -23 -13 -30 -34 -25 -69 -116 -65 -142
6 -18 50 -24 187 -11 248 15 68 43 100 87 100 37 0 74 -31 74 -62 0 -11 7 -18
20 -18 24 0 24 1 6 44 -19 45 -52 66 -104 66 -34 0 -49 -6 -72 -28z"/>
<path d="M4667 3784 c-4 -4 -7 -108 -7 -231 l0 -224 97 3 c64 2 98 7 100 15 3
9 -19 13 -79 15 l-83 3 0 95 0 95 73 3 c54 2 72 6 72 17 0 11 -18 15 -72 17
l-73 3 0 80 0 80 78 3 c56 2 77 6 74 15 -4 13 -168 23 -180 11z"/>
<path d="M5414 3659 c-39 -11 -55 -29 -101 -114 -44 -81 -75 -99 -117 -71 -18
11 -26 25 -26 45 0 28 26 61 48 61 7 0 12 15 12 35 0 45 -26 47 -71 7 -25 -23
-33 -38 -36 -78 -10 -99 45 -162 130 -151 47 6 80 35 108 96 32 67 67 101 103
101 39 0 53 -9 64 -40 13 -35 -3 -72 -38 -92 -32 -18 -42 -64 -16 -74 22 -9
74 23 91 56 18 35 20 126 2 159 -26 51 -94 78 -153 60z"/>
<path d="M7020 3603 c-32 -12 -83 -71 -116 -135 -39 -76 -64 -98 -115 -98 -44
0 -69 25 -69 68 0 31 37 72 66 72 10 0 14 14 14 46 l0 47 -32 -7 c-100 -19
-148 -138 -98 -241 27 -55 64 -75 139 -75 53 0 64 4 96 31 19 17 52 63 72 101
40 77 78 108 131 108 64 0 104 -74 67 -126 -8 -12 -28 -27 -45 -34 -27 -11
-30 -17 -30 -56 0 -24 3 -44 8 -44 29 0 82 24 104 47 75 81 55 244 -36 287
-33 15 -124 21 -156 9z"/>
<path d="M7784 3590 c-38 -15 -64 -59 -64 -108 0 -38 5 -49 38 -81 21 -20 60
-48 86 -63 78 -46 97 -132 39 -178 -37 -29 -79 -26 -114 9 -16 16 -29 37 -29
45 0 9 -7 16 -15 16 -22 0 -19 -43 6 -73 28 -37 83 -52 135 -38 57 15 77 41
82 106 6 73 -19 112 -96 153 -77 41 -95 62 -95 114 0 31 6 46 23 60 42 34 99
20 120 -32 13 -31 40 -41 40 -15 0 67 -86 113 -156 85z"/>
<path d="M10085 3590 c-28 -11 -59 -48 -76 -90 -15 -39 -19 -219 -6 -282 21
-99 107 -133 190 -76 15 11 20 10 28 -4 22 -39 29 -14 29 107 l0 125 -61 0
c-44 0 -60 -3 -57 -12 3 -7 21 -14 40 -16 44 -4 51 -19 42 -91 -14 -115 -111
-150 -161 -58 -26 47 -26 266 0 319 36 72 116 75 150 5 10 -20 23 -37 28 -37
18 0 20 28 5 59 -27 51 -96 74 -151 51z"/>
<path d="M7430 3355 l0 -235 105 0 c85 0 105 3 105 15 0 11 -19 15 -87 17
l-88 3 -3 90 c-3 108 2 115 95 115 35 0 63 4 63 10 0 6 -30 10 -69 10 -47 0
-72 4 -80 14 -7 9 -11 42 -9 88 l3 73 83 3 c64 2 82 6 82 17 0 12 -19 15 -100
15 l-100 0 0 -235z"/>
<path d="M8002 3578 c3 -7 27 -15 54 -18 l49 -5 3 -217 c2 -185 5 -218 17
-218 13 0 15 31 15 204 0 112 3 211 6 220 4 12 20 16 55 16 37 0 49 4 49 15 0
13 -21 15 -126 15 -96 0 -125 -3 -122 -12z"/>
<path d="M8327 3583 c-9 -8 -9 -426 -1 -447 3 -9 12 -16 20 -16 12 0 14 41 14
235 0 189 -3 235 -13 235 -8 0 -17 -3 -20 -7z"/>
<path d="M8480 3356 c0 -203 2 -236 15 -236 13 0 15 30 15 212 0 154 3 209 11
201 6 -6 30 -100 53 -209 32 -151 46 -200 58 -202 25 -5 19 -26 113 386 3 12
10 22 15 22 6 0 10 -78 10 -206 0 -190 1 -205 18 -202 16 3 17 22 17 233 l0
230 -31 3 -32 3 -42 -173 c-52 -219 -50 -210 -62 -206 -6 2 -29 87 -52 189
l-41 184 -32 3 -33 3 0 -235z"/>
<path d="M8995 3578 c-10 -27 -105 -427 -105 -442 0 -9 7 -16 14 -16 10 0 19
20 27 62 14 73 36 98 83 98 68 0 82 -12 101 -89 14 -57 21 -71 36 -71 16 0 18
5 12 28 -3 15 -30 119 -58 232 -50 200 -52 205 -78 208 -16 2 -29 -2 -32 -10z
m38 -45 c3 -5 15 -54 28 -111 26 -114 24 -122 -36 -122 -63 0 -65 10 -29 168
15 66 25 84 37 65z"/>
<path d="M9162 3578 c3 -7 27 -15 54 -18 l49 -5 3 -217 c2 -185 5 -218 17
-218 13 0 15 31 15 204 0 112 3 211 6 220 4 12 20 16 55 16 37 0 49 4 49 15 0
13 -21 15 -126 15 -96 0 -125 -3 -122 -12z"/>
<path d="M9490 3355 c0 -202 2 -235 15 -235 13 0 15 33 15 235 0 202 -2 235
-15 235 -13 0 -15 -33 -15 -235z"/>
<path d="M9640 3356 c0 -203 2 -236 15 -236 13 0 15 29 15 202 0 162 3 200 13
190 6 -7 46 -97 87 -200 64 -159 78 -187 98 -190 l22 -3 0 235 c0 203 -2 236
-15 236 -13 0 -15 -28 -15 -190 0 -106 -4 -190 -9 -190 -5 0 -43 84 -84 188
-68 171 -77 187 -101 190 l-26 3 0 -235z"/>
<path d="M5770 3335 l0 -65 325 0 325 0 0 65 0 65 -325 0 -325 0 0 -65z"/>
<path d="M5380 3240 c0 -68 1 -70 25 -70 24 0 25 2 25 70 0 68 -1 70 -25 70
-24 0 -25 -2 -25 -70z"/>
<path d="M5777 3184 c-4 -4 -7 -94 -7 -201 l0 -193 55 0 54 0 3 63 3 62 268 3
268 2 -3 68 -3 67 -265 5 -265 5 -5 60 -5 60 -45 3 c-25 2 -49 0 -53 -4z"/>
<path d="M7013 3170 c-42 -19 -77 -63 -128 -163 -49 -95 -171 -86 -163 11 3
32 9 40 41 55 33 17 37 22 37 58 0 35 -2 39 -26 39 -38 0 -89 -35 -108 -74
-21 -45 -20 -122 2 -165 23 -47 61 -72 115 -78 90 -10 140 25 197 136 15 31
37 64 48 74 46 42 129 38 150 -8 25 -56 5 -103 -53 -125 -21 -8 -25 -16 -25
-51 l0 -42 34 6 c81 13 120 67 121 167 0 83 -23 126 -85 158 -54 27 -101 28
-157 2z"/>
<path d="M2490 3097 c-56 -28 -74 -123 -36 -182 30 -46 71 -59 202 -63 106 -4
128 -1 168 17 69 30 94 100 62 176 -15 35 -59 65 -96 65 -33 0 -27 -46 10 -65
55 -29 61 -84 11 -109 -65 -34 -261 -27 -302 10 -11 9 -19 30 -19 46 0 22 8
33 35 49 25 15 35 28 35 45 0 28 -28 32 -70 11z"/>
<path d="M3090 2915 l0 -195 30 0 30 0 1 133 c0 135 10 197 23 147 4 -14 14
-81 24 -150 l17 -125 30 0 30 0 22 134 c12 74 26 141 30 150 5 9 10 -49 13
-134 l5 -150 33 -3 32 -3 0 196 0 196 -57 -3 -57 -3 -18 -104 c-25 -152 -37
-150 -58 10 l-12 99 -59 0 -59 0 0 -195z"/>
<path d="M3545 3098 c-2 -7 -18 -85 -35 -173 -17 -88 -34 -170 -37 -183 -5
-22 -3 -23 32 -20 35 3 39 6 49 43 10 35 15 40 44 43 42 4 60 -11 64 -51 3
-29 6 -32 41 -35 47 -4 46 -12 2 208 -19 95 -35 175 -35 177 0 2 -27 3 -60 3
-40 0 -62 -4 -65 -12z m84 -139 c13 -79 10 -89 -24 -89 -30 0 -33 12 -23 80
16 105 30 108 47 9z"/>
<path d="M3800 2914 l0 -195 38 3 37 3 5 80 c5 72 7 80 26 83 36 5 54 -23 54
-83 0 -74 6 -85 46 -85 l34 0 0 68 c0 49 -5 75 -19 96 -19 29 -19 30 0 54 19
25 26 92 13 127 -12 30 -60 45 -149 45 l-85 0 0 -196z m156 121 c21 -32 11
-72 -21 -87 -40 -18 -55 -5 -55 50 0 27 3 52 7 55 15 16 53 6 69 -18z"/>
<path d="M4114 3097 c-2 -7 -3 -94 -2 -192 l3 -180 35 0 35 0 3 61 c2 44 8 66
21 78 24 21 32 11 60 -76 l23 -68 39 0 c21 0 39 4 39 10 0 5 -19 59 -42 121
-47 124 -49 101 16 212 l29 48 -44 -3 c-43 -3 -45 -4 -81 -73 -20 -38 -41 -71
-47 -73 -7 -2 -11 22 -11 72 l0 76 -35 0 c-20 0 -38 -6 -41 -13z"/>
<path d="M4430 2915 l0 -196 103 3 102 3 3 27 c3 27 3 27 -65 30 l-68 3 0 50
0 50 40 3 c72 4 85 10 85 37 0 24 -3 25 -54 25 -62 0 -79 14 -74 62 3 33 4 33
63 38 57 5 60 7 63 33 l3 27 -100 0 -101 0 0 -195z"/>
<path d="M4685 3100 c-3 -5 -3 -19 0 -30 5 -15 15 -20 40 -20 21 0 35 -6 39
-16 3 -9 6 -83 6 -165 l0 -149 35 0 35 0 0 153 c0 83 4 157 8 164 4 6 23 13
42 15 30 3 35 7 35 28 l0 25 -117 3 c-73 2 -119 -1 -123 -8z"/>
<path d="M5143 3093 c-7 -2 -13 -18 -13 -34 l0 -29 150 0 c83 0 150 -4 150 -9
0 -4 -66 -35 -147 -67 l-148 -59 -3 -42 -3 -43 220 0 c137 0 222 4 226 10 3 6
3 19 0 30 -6 19 -15 20 -168 20 -195 0 -195 4 8 81 77 29 146 57 153 62 6 5
12 23 12 38 0 22 -6 32 -26 39 -25 10 -388 13 -411 3z"/>
<path d="M7450 2912 c-35 -35 -50 -87 -50 -172 0 -118 31 -175 102 -186 65
-11 142 45 125 90 -10 25 -35 19 -52 -13 -29 -58 -86 -48 -106 18 -18 59 -8
204 15 230 28 31 63 27 84 -9 21 -37 62 -42 62 -7 -1 46 -45 77 -110 77 -32 0
-48 -6 -70 -28z"/>
<path d="M7740 2912 c-52 -52 -64 -213 -23 -301 20 -41 72 -65 121 -57 73 11
102 66 102 193 -1 144 -34 193 -131 193 -31 0 -47 -7 -69 -28z m106 -20 c27
-18 38 -60 38 -147 -1 -94 -11 -127 -45 -145 -29 -16 -65 10 -78 57 -23 81 -8
212 27 232 20 12 43 13 58 3z"/>
<path d="M8027 2934 c-4 -4 -7 -90 -7 -191 l0 -183 25 0 25 0 0 157 c0 195 12
192 48 -11 26 -145 27 -147 52 -144 24 3 26 9 50 128 14 69 30 139 34 155 15
55 25 -1 25 -147 l1 -138 25 0 25 0 -2 188 -3 187 -44 0 -45 0 -26 -124 c-14
-69 -31 -126 -37 -128 -6 -2 -17 35 -28 94 -28 164 -25 158 -71 161 -22 2 -43
0 -47 -4z"/>
<path d="M8427 2933 c-4 -3 -7 -89 -7 -190 l0 -183 25 0 c24 0 25 2 25 69 0
43 5 72 13 78 6 6 34 13 62 16 65 7 95 39 95 103 0 58 -13 82 -55 100 -35 14
-146 20 -158 7z m140 -59 c20 -20 24 -31 19 -57 -8 -39 -30 -57 -72 -57 -36 0
-44 13 -44 66 0 75 47 98 97 48z"/>
<path d="M8717 2934 c-4 -4 -7 -90 -7 -191 l0 -183 95 0 c57 0 95 4 95 10 0 6
0 13 0 18 0 4 -28 9 -62 12 l-63 5 -5 165 c-5 157 -6 165 -25 168 -12 2 -24 0
-28 -4z"/>
<path d="M8965 2918 c-3 -13 -4 -97 -3 -188 l3 -165 98 -3 c91 -3 97 -2 97 17
0 18 -8 20 -67 23 l-68 3 -3 61 c-3 69 2 74 86 74 35 0 42 3 42 20 0 16 -8 19
-62 22 l-63 3 0 50 0 50 65 5 c57 4 65 8 65 25 0 18 -8 20 -92 23 -89 3 -93 2
-98 -20z"/>
<path d="M9230 2931 c0 -6 19 -48 41 -94 l42 -84 -46 -96 -46 -97 28 0 c25 0
31 7 56 65 15 36 33 65 40 65 6 0 24 -29 40 -65 25 -59 30 -65 56 -65 16 0 29
2 29 5 0 2 -18 44 -40 91 -22 48 -40 95 -40 106 0 10 16 50 35 88 41 82 43 92
13 88 -17 -2 -31 -19 -50 -60 -15 -32 -32 -58 -38 -58 -6 0 -23 26 -38 58 -22
46 -32 58 -55 60 -15 2 -27 -1 -27 -7z"/>
<path d="M7175 2758 c-3 -7 -6 -56 -7 -108 l-3 -95 -90 0 -90 0 -5 95 -5 95
-35 0 -35 0 -5 -95 -5 -95 -69 -3 c-40 -2 -74 2 -80 8 -6 6 -13 52 -16 103
l-5 92 -30 0 -30 0 -3 -148 -3 -147 293 2 293 3 3 139 c1 77 -1 143 -5 146
-17 15 -63 21 -68 8z"/>
<path d="M2442 2728 l3 -33 220 0 220 0 3 33 3 32 -226 0 -226 0 3 -32z"/>
<path d="M5865 2711 c-73 -34 -105 -88 -105 -177 0 -130 77 -196 250 -215 192
-22 353 19 399 102 27 47 32 131 12 191 -15 45 -68 93 -118 107 -71 20 -73 18
-73 -54 0 -62 1 -65 28 -71 48 -11 72 -32 72 -64 0 -54 -33 -65 -205 -68 -92
-2 -168 1 -193 8 -86 23 -93 97 -12 121 l41 12 -3 61 c-3 57 -5 61 -28 64 -14
1 -43 -6 -65 -17z"/>
<path d="M5270 2714 c-99 -19 -141 -58 -148 -136 -3 -43 0 -59 20 -88 39 -58
86 -75 208 -74 168 0 230 40 230 149 0 100 -58 143 -203 150 -45 2 -93 1 -107
-1z m215 -88 c22 -9 37 -24 41 -40 17 -69 -35 -98 -175 -98 -108 0 -142 9
-167 48 -16 24 -16 29 -3 53 8 14 26 31 39 38 36 18 221 17 265 -1z"/>
<path d="M2440 2510 l0 -110 225 0 225 0 0 30 0 30 -84 0 c-117 0 -116 -1
-116 82 l0 69 -27 -3 c-27 -3 -28 -5 -31 -68 -2 -36 -8 -68 -15 -72 -7 -4 -31
-8 -54 -8 -59 0 -73 18 -73 96 0 62 -1 64 -25 64 l-25 0 0 -110z"/>
<path d="M6730 2351 c-50 -26 -73 -62 -78 -123 -12 -149 97 -214 343 -206 103
3 128 7 170 28 142 71 115 292 -38 317 l-37 6 0 -41 c0 -37 3 -42 37 -59 65
-31 75 -86 22 -125 -54 -41 -278 -48 -368 -12 -76 30 -77 116 -1 140 32 10 35
15 38 53 3 39 2 41 -25 41 -16 0 -44 -8 -63 -19z"/>
<path d="M2442 2218 l3 -113 220 0 220 0 3 32 3 32 -98 3 -98 3 -5 70 c-5 67
-6 70 -30 70 -24 0 -25 -3 -30 -70 l-5 -70 -55 -3 c-69 -4 -80 9 -80 95 0 61
-1 63 -25 63 l-26 0 3 -112z"/>
<path d="M6320 2143 c0 -54 -4 -104 -9 -111 -5 -9 -30 -12 -87 -10 l-79 3 -5
95 -5 95 -52 3 -52 3 -3 -98 -3 -98 -70 0 -70 0 -5 100 -5 100 -53 3 -52 3 2
-173 3 -173 320 0 320 0 3 171 c2 171 2 172 -20 178 -13 3 -35 6 -50 6 l-28 0
0 -97z"/>
<path d="M2785 2019 c-44 -10 -140 -33 -212 -50 l-133 -31 0 -49 c0 -27 3 -49
6 -49 4 0 103 -22 221 -50 118 -27 216 -50 219 -50 3 0 4 15 2 32 -3 30 -7 33
-48 41 -60 12 -70 22 -70 71 0 55 9 65 66 80 45 11 49 15 52 44 4 38 5 37
-103 11z m-67 -130 c2 -24 -2 -38 -11 -42 -20 -8 -180 27 -184 40 -3 7 6 15
19 18 13 3 41 9 63 14 22 5 56 9 75 8 33 -2 35 -4 38 -38z"/>
<path d="M6802 1916 c-98 -25 -144 -75 -149 -163 -7 -113 60 -174 210 -193
103 -13 243 1 304 31 135 65 119 263 -25 314 -64 23 -268 29 -340 11z m263
-86 c77 -13 109 -36 113 -83 6 -73 -71 -102 -258 -95 -128 4 -174 20 -191 65
-21 56 25 101 121 116 50 8 156 7 215 -3z"/>
<path d="M6320 1718 c0 -51 -4 -99 -8 -105 -6 -9 -76 -13 -272 -15 l-265 -3 0
-65 0 -65 320 0 320 0 3 166 2 166 -37 7 c-66 10 -63 14 -63 -86z"/>
<path d="M2489 1665 c-39 -21 -50 -60 -47 -156 l3 -84 220 0 220 0 3 32 3 32
-98 3 -98 3 -3 37 c-5 57 22 78 102 78 84 0 96 5 96 42 l0 31 -83 -5 c-64 -3
-91 -9 -113 -25 l-29 -21 -28 24 c-33 28 -105 32 -148 9z m127 -70 c20 -20 25
-34 22 -63 l-3 -37 -70 0 -70 0 -3 41 c-3 35 1 45 24 63 35 28 69 27 100 -4z"/>
<path d="M6740 1452 c-19 -9 -45 -32 -57 -51 -21 -31 -23 -46 -23 -152 l0
-119 296 0 295 0 -3 43 -3 42 -125 5 -125 5 -3 46 c-2 33 2 52 16 69 18 22 30
25 128 31 60 4 110 7 112 8 1 1 2 19 2 41 l0 40 -93 0 c-105 0 -150 -10 -183
-41 l-24 -22 -24 26 c-46 50 -122 61 -186 29z m146 -96 c24 -20 28 -31 29 -77
l0 -54 -90 0 -90 0 -3 47 c-2 26 2 57 8 68 24 44 104 53 146 16z"/>
<path d="M6320 1301 c0 -49 -3 -96 -6 -105 -5 -14 -39 -16 -276 -16 l-269 0 3
-67 3 -68 320 0 320 0 3 166 2 166 -37 7 c-65 10 -63 14 -63 -83z"/>
<path d="M2442 1228 c3 -129 4 -133 26 -136 19 -3 22 1 22 35 0 21 4 44 8 50
6 9 61 13 197 15 l190 3 3 33 3 32 -194 0 c-215 0 -207 -3 -207 66 0 30 -3 34
-25 34 l-26 0 3 -132z"/>
<path d="M6740 1018 c-66 -35 -80 -69 -80 -205 l0 -113 293 2 292 3 3 42 3 42
-123 3 -123 3 -6 70 c-3 39 -13 85 -23 103 -35 68 -152 92 -236 50z m138 -79
c36 -12 55 -51 50 -105 l-3 -39 -95 0 -95 0 -3 49 c-2 36 2 53 15 68 33 37 77
46 131 27z"/>
<path d="M5935 927 c-71 -19 -110 -42 -142 -84 -23 -30 -28 -48 -31 -107 -3
-60 0 -78 21 -116 48 -91 204 -135 398 -112 159 19 227 63 248 160 25 116 -24
210 -129 248 -61 22 -295 29 -365 11z m349 -147 c41 -21 52 -43 40 -77 -14
-42 -57 -52 -227 -52 -163 -1 -209 10 -228 53 -17 37 9 72 63 85 65 15 316 9
352 -9z"/>
<path d="M5903 420 c-97 -23 -146 -93 -141 -201 7 -140 95 -200 314 -216 114
-8 270 33 316 83 47 53 55 175 17 246 -26 46 -87 84 -144 90 l-30 3 0 -64 0
-65 35 -9 c19 -5 41 -13 48 -19 18 -16 15 -63 -7 -82 -27 -25 -148 -39 -269
-32 -113 6 -167 23 -177 55 -13 43 2 60 78 85 15 5 18 15 15 68 -2 34 -7 62
-13 64 -5 1 -24 -2 -42 -6z"/>
</g>
</svg>
